<ttFont>
<head>
    <!-- Most of this table will be recalculated by the compiler -->
    <tableVersion value="1.0"/>
    <fontRevision value="3.0"/>
    <checkSumAdjustment value="0x12be2206"/>
    <magicNumber value="0x5f0f3cf5"/>
    <flags value="00001000 00011011"/>
    <unitsPerEm value="2048"/>
    <created value="Mon Aug  6 13:54:50 1990"/>
    <modified value="Tue Jun 11 14:12:48 2019"/>
    <xMin value="-94"/>
    <yMin value="-431"/>
    <xMax value="2005"/>
    <yMax value="1601"/>
    <macStyle value="00000000 00000000"/>
    <lowestRecPPEM value="9"/>
    <fontDirectionHint value="1"/>
    <indexToLocFormat value="0"/>
    <glyphDataFormat value="0"/>
  </head>
    <TTGlyph name="A" xMin="-3" yMin="0" xMax="1369" yMax="1466">
      <contour>
        <pt x="-3" y="0" on="1"/>
        <pt x="560" y="1466" on="1"/>
        <pt x="769" y="1466" on="1"/>
        <pt x="1369" y="0" on="1"/>
        <pt x="1148" y="0" on="1"/>
        <pt x="977" y="444" on="1"/>
        <pt x="364" y="444" on="1"/>
        <pt x="203" y="0" on="1"/>
      </contour>
      <contour>
        <pt x="420" y="602" on="1"/>
        <pt x="917" y="602" on="1"/>
        <pt x="764" y="1008" on="1"/>
        <pt x="694" y="1193" on="0"/>
        <pt x="660" y="1312" on="1"/>
        <pt x="632" y="1171" on="0"/>
        <pt x="581" y="1032" on="1"/>
      </contour>
    </TTGlyph>
    <TTGlyph name="B" xMin="150" yMin="0" xMax="1257" yMax="1466">
      <contour>
        <pt x="150" y="0" on="1"/>
        <pt x="150" y="1466" on="1"/>
        <pt x="700" y="1466" on="1"/>
        <pt x="868" y="1466" on="0"/>
        <pt x="1071" y="1377" on="0"/>
        <pt x="1186" y="1192" on="0"/>
        <pt x="1186" y="1091" on="1"/>
        <pt x="1186" y="997" on="0"/>
        <pt x="1084" y="831" on="0"/>
        <pt x="981" y="780" on="1"/>
        <pt x="1114" y="741" on="0"/>
        <pt x="1257" y="553" on="0"/>
        <pt x="1257" y="425" on="1"/>
        <pt x="1257" y="322" on="0"/>
        <pt x="1170" y="145" on="0"/>
        <pt x="1042" y="49" on="0"/>
        <pt x="849" y="0" on="0"/>
        <pt x="709" y="0" on="1"/>
      </contour>
      <contour>
        <pt x="344" y="850" on="1"/>
        <pt x="661" y="850" on="1"/>
        <pt x="790" y="850" on="0"/>
        <pt x="846" y="867" on="1"/>
        <pt x="920" y="889" on="0"/>
        <pt x="995" y="991" on="0"/>
        <pt x="995" y="1068" on="1"/>
        <pt x="995" y="1141" on="0"/>
        <pt x="925" y="1252" on="0"/>
        <pt x="795" y="1293" on="0"/>
        <pt x="637" y="1293" on="1"/>
        <pt x="344" y="1293" on="1"/>
      </contour>
      <contour>
        <pt x="344" y="173" on="1"/>
        <pt x="709" y="173" on="1"/>
        <pt x="803" y="173" on="0"/>
        <pt x="841" y="180" on="1"/>
        <pt x="908" y="192" on="0"/>
        <pt x="998" y="248" on="0"/>
        <pt x="1056" y="355" on="0"/>
        <pt x="1056" y="425" on="1"/>
        <pt x="1056" y="507" on="0"/>
        <pt x="972" y="628" on="0"/>
        <pt x="823" y="677" on="0"/>
        <pt x="683" y="677" on="1"/>
        <pt x="344" y="677" on="1"/>
      </contour>
    </TTGlyph>
    <TTGlyph name="C" xMin="102" yMin="-25" xMax="1398" yMax="1491">
      <contour>
        <pt x="1204" y="514" on="1"/>
        <pt x="1398" y="465" on="1"/>
        <pt x="1337" y="226" on="0"/>
        <pt x="1020" y="-25" on="0"/>
        <pt x="791" y="-25" on="1"/>
        <pt x="554" y="-25" on="0"/>
        <pt x="257" y="168" on="0"/>
        <pt x="102" y="534" on="0"/>
        <pt x="102" y="744" on="1"/>
        <pt x="102" y="973" on="0"/>
        <pt x="277" y="1314" on="0"/>
        <pt x="600" y="1491" on="0"/>
        <pt x="794" y="1491" on="1"/>
        <pt x="1014" y="1491" on="0"/>
        <pt x="1314" y="1267" on="0"/>
        <pt x="1373" y="1064" on="1"/>
        <pt x="1182" y="1019" on="1"/>
        <pt x="1131" y="1179" on="0"/>
        <pt x="937" y="1325" on="0"/>
        <pt x="790" y="1325" on="1"/>
        <pt x="621" y="1325" on="0"/>
        <pt x="394" y="1163" on="0"/>
        <pt x="302" y="890" on="0"/>
        <pt x="302" y="745" on="1"/>
        <pt x="302" y="558" on="0"/>
        <pt x="411" y="279" on="0"/>
        <pt x="641" y="141" on="0"/>
        <pt x="775" y="141" on="1"/>
        <pt x="938" y="141" on="0"/>
        <pt x="1164" y="329" on="0"/>
      </contour>
    </TTGlyph>
    <TTGlyph name="D" xMin="158" yMin="0" xMax="1370" yMax="1466">
      <contour>
        <pt x="158" y="0" on="1"/>
        <pt x="158" y="1466" on="1"/>
        <pt x="663" y="1466" on="1"/>
        <pt x="834" y="1466" on="0"/>
        <pt x="924" y="1445" on="1"/>
        <pt x="1050" y="1416" on="0"/>
        <pt x="1139" y="1340" on="1"/>
        <pt x="1255" y="1242" on="0"/>
        <pt x="1370" y="937" on="0"/>
        <pt x="1370" y="741" on="1"/>
        <pt x="1370" y="574" on="0"/>
        <pt x="1292" y="316" on="0"/>
        <pt x="1170" y="147" on="0"/>
        <pt x="1025" y="50" on="0"/>
        <pt x="820" y="0" on="0"/>
        <pt x="687" y="0" on="1"/>
      </contour>
      <contour>
        <pt x="352" y="173" on="1"/>
        <pt x="665" y="173" on="1"/>
        <pt x="810" y="173" on="0"/>
        <pt x="975" y="227" on="0"/>
        <pt x="1024" y="276" on="1"/>
        <pt x="1093" y="345" on="0"/>
        <pt x="1170" y="578" on="0"/>
        <pt x="1170" y="744" on="1"/>
        <pt x="1170" y="974" on="0"/>
        <pt x="1019" y="1221" on="0"/>
        <pt x="911" y="1263" on="1"/>
        <pt x="833" y="1293" on="0"/>
        <pt x="660" y="1293" on="1"/>
        <pt x="352" y="1293" on="1"/>
      </contour>
    </TTGlyph>
    <TTGlyph name="E" xMin="162" yMin="0" xMax="1256" yMax="1466">
      <contour>
        <pt x="162" y="0" on="1"/>
        <pt x="162" y="1466" on="1"/>
        <pt x="1222" y="1466" on="1"/>
        <pt x="1222" y="1293" on="1"/>
        <pt x="356" y="1293" on="1"/>
        <pt x="356" y="844" on="1"/>
        <pt x="1167" y="844" on="1"/>
        <pt x="1167" y="672" on="1"/>
        <pt x="356" y="672" on="1"/>
        <pt x="356" y="173" on="1"/>
        <pt x="1256" y="173" on="1"/>
        <pt x="1256" y="0" on="1"/>
      </contour>
    </TTGlyph>
    <TTGlyph name="F" xMin="168" yMin="0" xMax="1157" yMax="1466">
      <contour>
        <pt x="168" y="0" on="1"/>
        <pt x="168" y="1466" on="1"/>
        <pt x="1157" y="1466" on="1"/>
        <pt x="1157" y="1293" on="1"/>
        <pt x="362" y="1293" on="1"/>
        <pt x="362" y="839" on="1"/>
        <pt x="1050" y="839" on="1"/>
        <pt x="1050" y="666" on="1"/>
        <pt x="362" y="666" on="1"/>
        <pt x="362" y="0" on="1"/>
      </contour>
    </TTGlyph>
    <TTGlyph name="G" xMin="109" yMin="-25" xMax="1465" yMax="1491">
      <contour>
        <pt x="844" y="575" on="1"/>
        <pt x="844" y="747" on="1"/>
        <pt x="1465" y="748" on="1"/>
        <pt x="1465" y="204" on="1"/>
        <pt x="1322" y="90" on="0"/>
        <pt x="1018" y="-25" on="0"/>
        <pt x="858" y="-25" on="1"/>
        <pt x="642" y="-25" on="0"/>
        <pt x="289" y="160" on="0"/>
        <pt x="109" y="510" on="0"/>
        <pt x="109" y="726" on="1"/>
        <pt x="109" y="940" on="0"/>
        <pt x="288" y="1311" on="0"/>
        <pt x="624" y="1491" on="0"/>
        <pt x="843" y="1491" on="1"/>
        <pt x="1002" y="1491" on="0"/>
        <pt x="1259" y="1388" on="0"/>
        <pt x="1405" y="1204" on="0"/>
        <pt x="1443" y="1056" on="1"/>
        <pt x="1268" y="1008" on="1"/>
        <pt x="1235" y="1120" on="0"/>
        <pt x="1137" y="1248" on="0"/>
        <pt x="955" y="1325" on="0"/>
        <pt x="844" y="1325" on="1"/>
        <pt x="711" y="1325" on="0"/>
        <pt x="517" y="1244" on="0"/>
        <pt x="398" y="1112" on="0"/>
        <pt x="365" y="1033" on="1"/>
        <pt x="309" y="897" on="0"/>
        <pt x="309" y="738" on="1"/>
        <pt x="309" y="542" on="0"/>
        <pt x="444" y="278" on="0"/>
        <pt x="702" y="150" on="0"/>
        <pt x="847" y="150" on="1"/>
        <pt x="973" y="150" on="0"/>
        <pt x="1213" y="247" on="0"/>
        <pt x="1275" y="302" on="1"/>
        <pt x="1275" y="575" on="1"/>
      </contour>
    </TTGlyph>
    <TTGlyph name="H" xMin="164" yMin="0" xMax="1314" yMax="1466">
      <contour>
        <pt x="164" y="0" on="1"/>
        <pt x="164" y="1466" on="1"/>
        <pt x="358" y="1466" on="1"/>
        <pt x="358" y="864" on="1"/>
        <pt x="1120" y="864" on="1"/>
        <pt x="1120" y="1466" on="1"/>
        <pt x="1314" y="1466" on="1"/>
        <pt x="1314" y="0" on="1"/>
        <pt x="1120" y="0" on="1"/>
        <pt x="1120" y="691" on="1"/>
        <pt x="358" y="691" on="1"/>
        <pt x="358" y="0" on="1"/>
      </contour>
    </TTGlyph>
    <TTGlyph name="I" xMin="191" yMin="0" xMax="385" yMax="1466">
      <contour>
        <pt x="191" y="0" on="1"/>
        <pt x="191" y="1466" on="1"/>
        <pt x="385" y="1466" on="1"/>
        <pt x="385" y="0" on="1"/>
      </contour>
    </TTGlyph>
    <TTGlyph name="J" xMin="55" yMin="-25" xMax="865" yMax="1466">
      <contour>
        <pt x="59" y="416" on="1"/>
        <pt x="234" y="440" on="1"/>
        <pt x="241" y="272" on="0"/>
        <pt x="353" y="148" on="0"/>
        <pt x="452" y="148" on="1"/>
        <pt x="525" y="148" on="0"/>
        <pt x="631" y="215" on="0"/>
        <pt x="671" y="330" on="0"/>
        <pt x="671" y="456" on="1"/>
        <pt x="671" y="1466" on="1"/>
        <pt x="865" y="1466" on="1"/>
        <pt x="865" y="467" on="1"/>
        <pt x="865" y="283" on="0"/>
        <pt x="776" y="81" on="0"/>
        <pt x="583" y="-25" on="0"/>
        <pt x="453" y="-25" on="1"/>
        <pt x="260" y="-25" on="0"/>
        <pt x="55" y="197" on="0"/>
      </contour>
    </TTGlyph>
    <TTGlyph name="K" xMin="150" yMin="0" xMax="1362" yMax="1466">
      <contour>
        <pt x="150" y="0" on="1"/>
        <pt x="150" y="1466" on="1"/>
        <pt x="344" y="1466" on="1"/>
        <pt x="344" y="739" on="1"/>
        <pt x="1072" y="1466" on="1"/>
        <pt x="1335" y="1466" on="1"/>
        <pt x="720" y="872" on="1"/>
        <pt x="1362" y="0" on="1"/>
        <pt x="1106" y="0" on="1"/>
        <pt x="584" y="742" on="1"/>
        <pt x="344" y="508" on="1"/>
        <pt x="344" y="0" on="1"/>
      </contour>
    </TTGlyph>
    <TTGlyph name="L" xMin="150" yMin="0" xMax="1066" yMax="1466">
      <contour>
        <pt x="150" y="0" on="1"/>
        <pt x="150" y="1466" on="1"/>
        <pt x="344" y="1466" on="1"/>
        <pt x="344" y="173" on="1"/>
        <pt x="1066" y="173" on="1"/>
        <pt x="1066" y="0" on="1"/>
      </contour>
    </TTGlyph>
    <TTGlyph name="M" xMin="152" yMin="0" xMax="1551" yMax="1466">
      <contour>
        <pt x="152" y="0" on="1"/>
        <pt x="152" y="1466" on="1"/>
        <pt x="444" y="1466" on="1"/>
        <pt x="791" y="428" on="1"/>
        <pt x="839" y="283" on="0"/>
        <pt x="861" y="211" on="1"/>
        <pt x="886" y="291" on="0"/>
        <pt x="939" y="446" on="1"/>
        <pt x="1290" y="1466" on="1"/>
        <pt x="1551" y="1466" on="1"/>
        <pt x="1551" y="0" on="1"/>
        <pt x="1364" y="0" on="1"/>
        <pt x="1364" y="1227" on="1"/>
        <pt x="938" y="0" on="1"/>
        <pt x="763" y="0" on="1"/>
        <pt x="339" y="1248" on="1"/>
        <pt x="339" y="0" on="1"/>
      </contour>
    </TTGlyph>
    <TTGlyph name="N" xMin="156" yMin="0" xMax="1311" yMax="1466">
      <contour>
        <pt x="156" y="0" on="1"/>
        <pt x="156" y="1466" on="1"/>
        <pt x="355" y="1466" on="1"/>
        <pt x="1125" y="315" on="1"/>
        <pt x="1125" y="1466" on="1"/>
        <pt x="1311" y="1466" on="1"/>
        <pt x="1311" y="0" on="1"/>
        <pt x="1112" y="0" on="1"/>
        <pt x="342" y="1152" on="1"/>
        <pt x="342" y="0" on="1"/>
      </contour>
    </TTGlyph>
    <TTGlyph name="O" xMin="99" yMin="-25" xMax="1501" yMax="1492">
      <contour>
        <pt x="99" y="714" on="1"/>
        <pt x="99" y="1079" on="0"/>
        <pt x="491" y="1492" on="0"/>
        <pt x="801" y="1492" on="1"/>
        <pt x="1004" y="1492" on="0"/>
        <pt x="1330" y="1298" on="0"/>
        <pt x="1501" y="951" on="0"/>
        <pt x="1501" y="731" on="1"/>
        <pt x="1501" y="508" on="0"/>
        <pt x="1321" y="156" on="0"/>
        <pt x="991" y="-25" on="0"/>
        <pt x="800" y="-25" on="1"/>
        <pt x="593" y="-25" on="0"/>
        <pt x="267" y="175" on="0"/>
        <pt x="99" y="521" on="0"/>
      </contour>
      <contour>
        <pt x="299" y="711" on="1"/>
        <pt x="299" y="446" on="0"/>
        <pt x="584" y="141" on="0"/>
        <pt x="799" y="141" on="1"/>
        <pt x="1018" y="141" on="0"/>
        <pt x="1301" y="449" on="0"/>
        <pt x="1301" y="732" on="1"/>
        <pt x="1301" y="911" on="0"/>
        <pt x="1180" y="1178" on="0"/>
        <pt x="947" y="1325" on="0"/>
        <pt x="802" y="1325" on="1"/>
        <pt x="596" y="1325" on="0"/>
        <pt x="299" y="1042" on="0"/>
      </contour>
    </TTGlyph>
    <TTGlyph name="P" xMin="158" yMin="0" xMax="1277" yMax="1466">
      <contour>
        <pt x="158" y="0" on="1"/>
        <pt x="158" y="1466" on="1"/>
        <pt x="711" y="1466" on="1"/>
        <pt x="857" y="1466" on="0"/>
        <pt x="934" y="1452" on="1"/>
        <pt x="1042" y="1434" on="0"/>
        <pt x="1188" y="1333" on="0"/>
        <pt x="1277" y="1151" on="0"/>
        <pt x="1277" y="1042" on="1"/>
        <pt x="1277" y="855" on="0"/>
        <pt x="1039" y="596" on="0"/>
        <pt x="728" y="596" on="1"/>
        <pt x="352" y="596" on="1"/>
        <pt x="352" y="0" on="1"/>
      </contour>
      <contour>
        <pt x="352" y="769" on="1"/>
        <pt x="731" y="769" on="1"/>
        <pt x="919" y="769" on="0"/>
        <pt x="1077" y="909" on="0"/>
        <pt x="1077" y="1036" on="1"/>
        <pt x="1077" y="1128" on="0"/>
        <pt x="984" y="1259" on="0"/>
        <pt x="908" y="1280" on="1"/>
        <pt x="859" y="1293" on="0"/>
        <pt x="727" y="1293" on="1"/>
        <pt x="352" y="1293" on="1"/>
      </contour>
    </TTGlyph>
    <TTGlyph name="Q" xMin="88" yMin="-114" xMax="1518" yMax="1492">
      <contour>
        <pt x="1269" y="157" on="1"/>
        <pt x="1404" y="64" on="0"/>
        <pt x="1518" y="21" on="1"/>
        <pt x="1461" y="-114" on="1"/>
        <pt x="1303" y="-57" on="0"/>
        <pt x="1146" y="66" on="1"/>
        <pt x="983" y="-25" on="0"/>
        <pt x="786" y="-25" on="1"/>
        <pt x="587" y="-25" on="0"/>
        <pt x="263" y="167" on="0"/>
        <pt x="88" y="515" on="0"/>
        <pt x="88" y="733" on="1"/>
        <pt x="88" y="950" on="0"/>
        <pt x="264" y="1306" on="0"/>
        <pt x="589" y="1492" on="0"/>
        <pt x="790" y="1492" on="1"/>
        <pt x="993" y="1492" on="0"/>
        <pt x="1319" y="1299" on="0"/>
        <pt x="1490" y="952" on="0"/>
        <pt x="1490" y="734" on="1"/>
        <pt x="1490" y="553" on="0"/>
        <pt x="1380" y="264" on="0"/>
      </contour>
      <contour>
        <pt x="842" y="405" on="1"/>
        <pt x="1010" y="358" on="0"/>
        <pt x="1119" y="265" on="1"/>
        <pt x="1290" y="421" on="0"/>
        <pt x="1290" y="734" on="1"/>
        <pt x="1290" y="912" on="0"/>
        <pt x="1169" y="1178" on="0"/>
        <pt x="936" y="1325" on="0"/>
        <pt x="791" y="1325" on="1"/>
        <pt x="574" y="1325" on="0"/>
        <pt x="288" y="1028" on="0"/>
        <pt x="288" y="733" on="1"/>
        <pt x="288" y="447" on="0"/>
        <pt x="571" y="141" on="0"/>
        <pt x="791" y="141" on="1"/>
        <pt x="895" y="141" on="0"/>
        <pt x="987" y="180" on="1"/>
        <pt x="896" y="239" on="0"/>
        <pt x="795" y="264" on="1"/>
      </contour>
    </TTGlyph>
    <TTGlyph name="R" xMin="161" yMin="0" xMax="1453" yMax="1466">
      <contour>
        <pt x="161" y="0" on="1"/>
        <pt x="161" y="1466" on="1"/>
        <pt x="811" y="1466" on="1"/>
        <pt x="1007" y="1466" on="0"/>
        <pt x="1211" y="1387" on="0"/>
        <pt x="1333" y="1187" on="0"/>
        <pt x="1333" y="1066" on="1"/>
        <pt x="1333" y="910" on="0"/>
        <pt x="1131" y="696" on="0"/>
        <pt x="920" y="667" on="1"/>
        <pt x="997" y="630" on="0"/>
        <pt x="1037" y="594" on="1"/>
        <pt x="1122" y="516" on="0"/>
        <pt x="1198" y="399" on="1"/>
        <pt x="1453" y="0" on="1"/>
        <pt x="1209" y="0" on="1"/>
        <pt x="1015" y="305" on="1"/>
        <pt x="930" y="437" on="0"/>
        <pt x="820" y="577" on="0"/>
        <pt x="733" y="633" on="0"/>
        <pt x="688" y="644" on="1"/>
        <pt x="655" y="651" on="0"/>
        <pt x="580" y="651" on="1"/>
        <pt x="355" y="651" on="1"/>
        <pt x="355" y="0" on="1"/>
      </contour>
      <contour>
        <pt x="355" y="819" on="1"/>
        <pt x="772" y="819" on="1"/>
        <pt x="905" y="819" on="0"/>
        <pt x="1055" y="874" on="0"/>
        <pt x="1133" y="995" on="0"/>
        <pt x="1133" y="1066" on="1"/>
        <pt x="1133" y="1170" on="0"/>
        <pt x="982" y="1304" on="0"/>
        <pt x="819" y="1304" on="1"/>
        <pt x="355" y="1304" on="1"/>
      </contour>
    </TTGlyph>
    <TTGlyph name="S" xMin="92" yMin="-25" xMax="1259" yMax="1491">
      <contour>
        <pt x="92" y="471" on="1"/>
        <pt x="275" y="487" on="1"/>
        <pt x="288" y="377" on="0"/>
        <pt x="383" y="236" on="0"/>
        <pt x="583" y="149" on="0"/>
        <pt x="708" y="149" on="1"/>
        <pt x="819" y="149" on="0"/>
        <pt x="989" y="215" on="0"/>
        <pt x="1072" y="330" on="0"/>
        <pt x="1072" y="398" on="1"/>
        <pt x="1072" y="467" on="0"/>
        <pt x="992" y="570" on="0"/>
        <pt x="900" y="605" on="1"/>
        <pt x="841" y="628" on="0"/>
        <pt x="437" y="725" on="0"/>
        <pt x="356" y="768" on="1"/>
        <pt x="251" y="823" on="0"/>
        <pt x="148" y="986" on="0"/>
        <pt x="148" y="1087" on="1"/>
        <pt x="148" y="1198" on="0"/>
        <pt x="274" y="1391" on="0"/>
        <pt x="516" y="1491" on="0"/>
        <pt x="664" y="1491" on="1"/>
        <pt x="827" y="1491" on="0"/>
        <pt x="1076" y="1386" on="0"/>
        <pt x="1210" y="1182" on="0"/>
        <pt x="1215" y="1053" on="1"/>
        <pt x="1029" y="1039" on="1"/>
        <pt x="1014" y="1178" on="0"/>
        <pt x="841" y="1320" on="0"/>
        <pt x="672" y="1320" on="1"/>
        <pt x="496" y="1320" on="0"/>
        <pt x="335" y="1191" on="0"/>
        <pt x="335" y="1100" on="1"/>
        <pt x="335" y="1021" on="0"/>
        <pt x="392" y="970" on="1"/>
        <pt x="448" y="919" on="0"/>
        <pt x="921" y="812" on="0"/>
        <pt x="1009" y="772" on="1"/>
        <pt x="1137" y="713" on="0"/>
        <pt x="1259" y="532" on="0"/>
        <pt x="1259" y="414" on="1"/>
        <pt x="1259" y="297" on="0"/>
        <pt x="1125" y="90" on="0"/>
        <pt x="874" y="-25" on="0"/>
        <pt x="717" y="-25" on="1"/>
        <pt x="518" y="-25" on="0"/>
        <pt x="249" y="91" on="0"/>
        <pt x="96" y="324" on="0"/>
      </contour>
    </TTGlyph>
    <TTGlyph name="T" xMin="48" yMin="0" xMax="1210" yMax="1466">
      <contour>
        <pt x="531" y="0" on="1"/>
        <pt x="531" y="1293" on="1"/>
        <pt x="48" y="1293" on="1"/>
        <pt x="48" y="1466" on="1"/>
        <pt x="1210" y="1466" on="1"/>
        <pt x="1210" y="1293" on="1"/>
        <pt x="725" y="1293" on="1"/>
        <pt x="725" y="0" on="1"/>
      </contour>
    </TTGlyph>
    <TTGlyph name="U" xMin="161" yMin="-25" xMax="1314" yMax="1466">
      <contour>
        <pt x="1120" y="1466" on="1"/>
        <pt x="1314" y="1466" on="1"/>
        <pt x="1314" y="619" on="1"/>
        <pt x="1314" y="398" on="0"/>
        <pt x="1214" y="138" on="0"/>
        <pt x="953" y="-25" on="0"/>
        <pt x="741" y="-25" on="1"/>
        <pt x="535" y="-25" on="0"/>
        <pt x="273" y="117" on="0"/>
        <pt x="161" y="386" on="0"/>
        <pt x="161" y="619" on="1"/>
        <pt x="161" y="1466" on="1"/>
        <pt x="355" y="1466" on="1"/>
        <pt x="355" y="620" on="1"/>
        <pt x="355" y="429" on="0"/>
        <pt x="426" y="248" on="0"/>
        <pt x="599" y="150" on="0"/>
        <pt x="724" y="150" on="1"/>
        <pt x="938" y="150" on="0"/>
        <pt x="1120" y="344" on="0"/>
        <pt x="1120" y="620" on="1"/>
      </contour>
    </TTGlyph>
    <TTGlyph name="V" xMin="9" yMin="0" xMax="1350" yMax="1466">
      <contour>
        <pt x="577" y="0" on="1"/>
        <pt x="9" y="1466" on="1"/>
        <pt x="219" y="1466" on="1"/>
        <pt x="600" y="401" on="1"/>
        <pt x="646" y="273" on="0"/>
        <pt x="677" y="161" on="1"/>
        <pt x="711" y="281" on="0"/>
        <pt x="756" y="401" on="1"/>
        <pt x="1152" y="1466" on="1"/>
        <pt x="1350" y="1466" on="1"/>
        <pt x="776" y="0" on="1"/>
      </contour>
    </TTGlyph>
    <TTGlyph name="W" xMin="25" yMin="0" xMax="1910" yMax="1466">
      <contour>
        <pt x="414" y="0" on="1"/>
        <pt x="25" y="1466" on="1"/>
        <pt x="224" y="1466" on="1"/>
        <pt x="447" y="505" on="1"/>
        <pt x="483" y="354" on="0"/>
        <pt x="509" y="205" on="1"/>
        <pt x="565" y="440" on="0"/>
        <pt x="575" y="476" on="1"/>
        <pt x="854" y="1466" on="1"/>
        <pt x="1088" y="1466" on="1"/>
        <pt x="1298" y="724" on="1"/>
        <pt x="1377" y="448" on="0"/>
        <pt x="1412" y="205" on="1"/>
        <pt x="1440" y="344" on="0"/>
        <pt x="1485" y="524" on="1"/>
        <pt x="1715" y="1466" on="1"/>
        <pt x="1910" y="1466" on="1"/>
        <pt x="1508" y="0" on="1"/>
        <pt x="1321" y="0" on="1"/>
        <pt x="1012" y="1117" on="1"/>
        <pt x="973" y="1257" on="0"/>
        <pt x="966" y="1289" on="1"/>
        <pt x="943" y="1188" on="0"/>
        <pt x="923" y="1117" on="1"/>
        <pt x="612" y="0" on="1"/>
      </contour>
    </TTGlyph>
    <TTGlyph name="X" xMin="9" yMin="0" xMax="1353" yMax="1466">
      <contour>
        <pt x="9" y="0" on="1"/>
        <pt x="576" y="764" on="1"/>
        <pt x="76" y="1466" on="1"/>
        <pt x="307" y="1466" on="1"/>
        <pt x="573" y="1090" on="1"/>
        <pt x="656" y="973" on="0"/>
        <pt x="691" y="910" on="1"/>
        <pt x="740" y="990" on="0"/>
        <pt x="807" y="1077" on="1"/>
        <pt x="1102" y="1466" on="1"/>
        <pt x="1313" y="1466" on="1"/>
        <pt x="798" y="775" on="1"/>
        <pt x="1353" y="0" on="1"/>
        <pt x="1113" y="0" on="1"/>
        <pt x="744" y="523" on="1"/>
        <pt x="713" y="568" on="0"/>
        <pt x="680" y="621" on="1"/>
        <pt x="631" y="541" on="0"/>
        <pt x="610" y="511" on="1"/>
        <pt x="242" y="0" on="1"/>
      </contour>
    </TTGlyph>
    <TTGlyph name="Y" xMin="6" yMin="0" xMax="1350" yMax="1466">
      <contour>
        <pt x="571" y="0" on="1"/>
        <pt x="571" y="621" on="1"/>
        <pt x="6" y="1466" on="1"/>
        <pt x="242" y="1466" on="1"/>
        <pt x="531" y="1024" on="1"/>
        <pt x="611" y="900" on="0"/>
        <pt x="680" y="776" on="1"/>
        <pt x="746" y="891" on="0"/>
        <pt x="840" y="1035" on="1"/>
        <pt x="1124" y="1466" on="1"/>
        <pt x="1350" y="1466" on="1"/>
        <pt x="765" y="621" on="1"/>
        <pt x="765" y="0" on="1"/>
      </contour>
    </TTGlyph>
    <TTGlyph name="Z" xMin="41" yMin="0" xMax="1200" yMax="1466">
      <contour>
        <pt x="41" y="0" on="1"/>
        <pt x="41" y="180" on="1"/>
        <pt x="792" y="1119" on="1"/>
        <pt x="872" y="1219" on="0"/>
        <pt x="944" y="1293" on="1"/>
        <pt x="126" y="1293" on="1"/>
        <pt x="126" y="1466" on="1"/>
        <pt x="1176" y="1466" on="1"/>
        <pt x="1176" y="1293" on="1"/>
        <pt x="353" y="276" on="1"/>
        <pt x="264" y="173" on="1"/>
        <pt x="1200" y="173" on="1"/>
        <pt x="1200" y="0" on="1"/>
      </contour>
    </TTGlyph>
    <TTGlyph name="a" xMin="74" yMin="-24" xMax="1052" yMax="1086">
      <contour>
        <pt x="828" y="131" on="1"/>
        <pt x="728" y="46" on="0"/>
        <pt x="543" y="-24" on="0"/>
        <pt x="437" y="-24" on="1"/>
        <pt x="262" y="-24" on="0"/>
        <pt x="74" y="147" on="0"/>
        <pt x="74" y="280" on="1"/>
        <pt x="74" y="358" on="0"/>
        <pt x="145" y="487" on="0"/>
        <pt x="260" y="565" on="0"/>
        <pt x="332" y="585" on="1"/>
        <pt x="385" y="599" on="0"/>
        <pt x="492" y="612" on="1"/>
        <pt x="710" y="638" on="0"/>
        <pt x="813" y="674" on="1"/>
        <pt x="814" y="711" on="0"/>
        <pt x="814" y="721" on="1"/>
        <pt x="814" y="831" on="0"/>
        <pt x="763" y="876" on="1"/>
        <pt x="694" y="937" on="0"/>
        <pt x="558" y="937" on="1"/>
        <pt x="431" y="937" on="0"/>
        <pt x="310" y="848" on="0"/>
        <pt x="281" y="735" on="1"/>
        <pt x="105" y="759" on="1"/>
        <pt x="129" y="872" on="0"/>
        <pt x="239" y="1011" on="0"/>
        <pt x="447" y="1086" on="0"/>
        <pt x="584" y="1086" on="1"/>
        <pt x="720" y="1086" on="0"/>
        <pt x="890" y="1022" on="0"/>
        <pt x="970" y="925" on="0"/>
        <pt x="986" y="851" on="1"/>
        <pt x="995" y="805" on="0"/>
        <pt x="995" y="685" on="1"/>
        <pt x="995" y="445" on="1"/>
        <pt x="995" y="194" on="0"/>
        <pt x="1018" y="61" on="0"/>
        <pt x="1052" y="0" on="1"/>
        <pt x="864" y="0" on="1"/>
        <pt x="836" y="56" on="0"/>
      </contour>
      <contour>
        <pt x="813" y="533" on="1"/>
        <pt x="715" y="493" on="0"/>
        <pt x="519" y="465" on="1"/>
        <pt x="408" y="449" on="0"/>
        <pt x="316" y="409" on="0"/>
        <pt x="266" y="332" on="0"/>
        <pt x="266" y="285" on="1"/>
        <pt x="266" y="213" on="0"/>
        <pt x="375" y="117" on="0"/>
        <pt x="480" y="117" on="1"/>
        <pt x="584" y="117" on="0"/>
        <pt x="746" y="208" on="0"/>
        <pt x="784" y="287" on="1"/>
        <pt x="813" y="348" on="0"/>
        <pt x="813" y="467" on="1"/>
      </contour>
    </TTGlyph>
    <TTGlyph name="ampersand" xMin="88" yMin="-34" xMax="1319" yMax="1491">
      <contour>
        <pt x="973" y="173" on="1"/>
        <pt x="884" y="74" on="0"/>
        <pt x="674" y="-25" on="0"/>
        <pt x="552" y="-25" on="1"/>
        <pt x="327" y="-25" on="0"/>
        <pt x="195" y="127" on="1"/>
        <pt x="88" y="251" on="0"/>
        <pt x="88" y="404" on="1"/>
        <pt x="88" y="540" on="0"/>
        <pt x="263" y="759" on="0"/>
        <pt x="437" y="842" on="1"/>
        <pt x="338" y="956" on="0"/>
        <pt x="272" y="1098" on="0"/>
        <pt x="272" y="1164" on="1"/>
        <pt x="272" y="1296" on="0"/>
        <pt x="479" y="1491" on="0"/>
        <pt x="636" y="1491" on="1"/>
        <pt x="786" y="1491" on="0"/>
        <pt x="977" y="1307" on="0"/>
        <pt x="977" y="1178" on="1"/>
        <pt x="977" y="969" on="0"/>
        <pt x="700" y="821" on="1"/>
        <pt x="963" y="486" on="1"/>
        <pt x="1008" y="574" on="0"/>
        <pt x="1033" y="690" on="1"/>
        <pt x="1220" y="650" on="1"/>
        <pt x="1172" y="458" on="0"/>
        <pt x="1090" y="334" on="1"/>
        <pt x="1191" y="200" on="0"/>
        <pt x="1319" y="109" on="1"/>
        <pt x="1198" y="-34" on="1"/>
        <pt x="1089" y="36" on="0"/>
      </contour>
      <contour>
        <pt x="607" y="937" on="1"/>
        <pt x="724" y="1006" on="0"/>
        <pt x="793" y="1110" on="0"/>
        <pt x="793" y="1173" on="1"/>
        <pt x="793" y="1248" on="0"/>
        <pt x="698" y="1343" on="0"/>
        <pt x="627" y="1343" on="1"/>
        <pt x="554" y="1343" on="0"/>
        <pt x="457" y="1249" on="0"/>
        <pt x="457" y="1181" on="1"/>
        <pt x="457" y="1147" on="0"/>
        <pt x="492" y="1072" on="0"/>
        <pt x="527" y="1030" on="1"/>
      </contour>
      <contour>
        <pt x="860" y="315" on="1"/>
        <pt x="530" y="724" on="1"/>
        <pt x="384" y="637" on="0"/>
        <pt x="282" y="488" on="0"/>
        <pt x="282" y="415" on="1"/>
        <pt x="282" y="326" on="0"/>
        <pt x="424" y="134" on="0"/>
        <pt x="554" y="134" on="1"/>
        <pt x="635" y="134" on="0"/>
        <pt x="808" y="235" on="0"/>
      </contour>
    </TTGlyph>
    <TTGlyph name="asciicircum" xMin="54" yMin="690" xMax="907" yMax="1491">
      <contour>
        <pt x="239" y="690" on="1"/>
        <pt x="54" y="690" on="1"/>
        <pt x="407" y="1491" on="1"/>
        <pt x="552" y="1491" on="1"/>
        <pt x="907" y="690" on="1"/>
        <pt x="726" y="690" on="1"/>
        <pt x="479" y="1287" on="1"/>
      </contour>
    </TTGlyph>
    <TTGlyph name="asciitilde" xMin="87" yMin="557" xMax="1110" yMax="885">
      <contour>
        <pt x="87" y="557" on="1"/>
        <pt x="87" y="762" on="1"/>
        <pt x="193" y="882" on="0"/>
        <pt x="365" y="882" on="1"/>
        <pt x="425" y="882" on="0"/>
        <pt x="557" y="847" on="0"/>
        <pt x="679" y="795" on="1"/>
        <pt x="748" y="766" on="0"/>
        <pt x="817" y="748" on="0"/>
        <pt x="852" y="748" on="1"/>
        <pt x="917" y="748" on="0"/>
        <pt x="1056" y="826" on="0"/>
        <pt x="1110" y="885" on="1"/>
        <pt x="1110" y="673" on="1"/>
        <pt x="1046" y="613" on="0"/>
        <pt x="915" y="559" on="0"/>
        <pt x="833" y="559" on="1"/>
        <pt x="773" y="559" on="0"/>
        <pt x="664" y="587" on="0"/>
        <pt x="427" y="693" on="0"/>
        <pt x="348" y="693" on="1"/>
        <pt x="284" y="693" on="0"/>
        <pt x="171" y="638" on="0"/>
      </contour>
    </TTGlyph>
    <TTGlyph name="asterisk" xMin="64" yMin="867" xMax="725" yMax="1491">
      <contour>
        <pt x="64" y="1197" on="1"/>
        <pt x="110" y="1339" on="1"/>
        <pt x="269" y="1283" on="0"/>
        <pt x="341" y="1242" on="1"/>
        <pt x="322" y="1423" on="0"/>
        <pt x="321" y="1491" on="1"/>
        <pt x="466" y="1491" on="1"/>
        <pt x="463" y="1392" on="0"/>
        <pt x="443" y="1243" on="1"/>
        <pt x="546" y="1295" on="0"/>
        <pt x="679" y="1339" on="1"/>
        <pt x="725" y="1197" on="1"/>
        <pt x="598" y="1155" on="0"/>
        <pt x="476" y="1141" on="1"/>
        <pt x="537" y="1088" on="0"/>
        <pt x="648" y="952" on="1"/>
        <pt x="528" y="867" on="1"/>
        <pt x="470" y="946" on="0"/>
        <pt x="391" y="1082" on="1"/>
        <pt x="317" y="941" on="0"/>
        <pt x="261" y="867" on="1"/>
        <pt x="143" y="952" on="1"/>
        <pt x="259" y="1095" on="0"/>
        <pt x="309" y="1141" on="1"/>
        <pt x="180" y="1166" on="0"/>
      </contour>
    </TTGlyph>
    <TTGlyph name="at" xMin="111" yMin="-431" xMax="2005" yMax="1493">
      <contour>
        <pt x="1161" y="163" on="1"/>
        <pt x="1096" y="88" on="0"/>
        <pt x="935" y="-3" on="0"/>
        <pt x="854" y="-3" on="1"/>
        <pt x="765" y="-3" on="0"/>
        <pt x="597" y="101" on="0"/>
        <pt x="492" y="317" on="0"/>
        <pt x="492" y="446" on="1"/>
        <pt x="492" y="605" on="0"/>
        <pt x="655" y="924" on="0"/>
        <pt x="897" y="1084" on="0"/>
        <pt x="1011" y="1084" on="1"/>
        <pt x="1098" y="1084" on="0"/>
        <pt x="1256" y="993" on="0"/>
        <pt x="1313" y="900" on="1"/>
        <pt x="1347" y="1055" on="1"/>
        <pt x="1526" y="1055" on="1"/>
        <pt x="1382" y="384" on="1"/>
        <pt x="1352" y="244" on="0"/>
        <pt x="1352" y="229" on="1"/>
        <pt x="1352" y="202" on="0"/>
        <pt x="1393" y="163" on="0"/>
        <pt x="1422" y="163" on="1"/>
        <pt x="1475" y="163" on="0"/>
        <pt x="1561" y="224" on="1"/>
        <pt x="1675" y="304" on="0"/>
        <pt x="1808" y="573" on="0"/>
        <pt x="1808" y="716" on="1"/>
        <pt x="1808" y="883" on="0"/>
        <pt x="1637" y="1173" on="0"/>
        <pt x="1298" y="1347" on="0"/>
        <pt x="1093" y="1347" on="1"/>
        <pt x="859" y="1347" on="0"/>
        <pt x="472" y="1128" on="0"/>
        <pt x="259" y="719" on="0"/>
        <pt x="259" y="485" on="1"/>
        <pt x="259" y="240" on="0"/>
        <pt x="472" y="-114" on="0"/>
        <pt x="875" y="-283" on="0"/>
        <pt x="1120" y="-283" on="1"/>
        <pt x="1382" y="-283" on="0"/>
        <pt x="1736" y="-107" on="0"/>
        <pt x="1824" y="19" on="1"/>
        <pt x="2005" y="19" on="1"/>
        <pt x="1954" y="-86" on="0"/>
        <pt x="1706" y="-304" on="0"/>
        <pt x="1364" y="-431" on="0"/>
        <pt x="1123" y="-431" on="1"/>
        <pt x="901" y="-431" on="0"/>
        <pt x="526" y="-317" on="0"/>
        <pt x="262" y="-88" on="0"/>
        <pt x="195" y="61" on="1"/>
        <pt x="111" y="250" on="0"/>
        <pt x="111" y="469" on="1"/>
        <pt x="111" y="713" on="0"/>
        <pt x="211" y="934" on="1"/>
        <pt x="333" y="1205" on="0"/>
        <pt x="782" y="1493" on="0"/>
        <pt x="1102" y="1493" on="1"/>
        <pt x="1350" y="1493" on="0"/>
        <pt x="1745" y="1290" on="0"/>
        <pt x="1859" y="1089" on="1"/>
        <pt x="1956" y="916" on="0"/>
        <pt x="1956" y="713" on="1"/>
        <pt x="1956" y="423" on="0"/>
        <pt x="1752" y="198" on="1"/>
        <pt x="1570" y="-4" on="0"/>
        <pt x="1354" y="-4" on="1"/>
        <pt x="1285" y="-4" on="0"/>
        <pt x="1200" y="38" on="0"/>
        <pt x="1180" y="77" on="1"/>
        <pt x="1167" y="102" on="0"/>
      </contour>
      <contour>
        <pt x="677" y="434" on="1"/>
        <pt x="677" y="297" on="0"/>
        <pt x="807" y="145" on="0"/>
        <pt x="891" y="145" on="1"/>
        <pt x="947" y="145" on="0"/>
        <pt x="1071" y="212" on="0"/>
        <pt x="1184" y="344" on="0"/>
        <pt x="1256" y="547" on="0"/>
        <pt x="1256" y="649" on="1"/>
        <pt x="1256" y="785" on="0"/>
        <pt x="1121" y="935" on="0"/>
        <pt x="1024" y="935" on="1"/>
        <pt x="960" y="935" on="0"/>
        <pt x="847" y="870" on="0"/>
        <pt x="741" y="726" on="0"/>
        <pt x="677" y="520" on="0"/>
      </contour>
    </TTGlyph>
    <TTGlyph name="b" xMin="134" yMin="-24" xMax="1055" yMax="1466">
      <contour>
        <pt x="301" y="0" on="1"/>
        <pt x="134" y="0" on="1"/>
        <pt x="134" y="1466" on="1"/>
        <pt x="314" y="1466" on="1"/>
        <pt x="314" y="943" on="1"/>
        <pt x="428" y="1086" on="0"/>
        <pt x="605" y="1086" on="1"/>
        <pt x="703" y="1086" on="0"/>
        <pt x="878" y="1007" on="0"/>
        <pt x="991" y="864" on="0"/>
        <pt x="1055" y="662" on="0"/>
        <pt x="1055" y="547" on="1"/>
        <pt x="1055" y="274" on="0"/>
        <pt x="785" y="-24" on="0"/>
        <pt x="596" y="-24" on="1"/>
        <pt x="408" y="-24" on="0"/>
        <pt x="301" y="133" on="1"/>
      </contour>
      <contour>
        <pt x="299" y="539" on="1"/>
        <pt x="299" y="348" on="0"/>
        <pt x="351" y="263" on="1"/>
        <pt x="436" y="124" on="0"/>
        <pt x="581" y="124" on="1"/>
        <pt x="699" y="124" on="0"/>
        <pt x="871" y="329" on="0"/>
        <pt x="871" y="532" on="1"/>
        <pt x="871" y="740" on="0"/>
        <pt x="706" y="938" on="0"/>
        <pt x="589" y="938" on="1"/>
        <pt x="471" y="938" on="0"/>
        <pt x="299" y="733" on="0"/>
      </contour>
    </TTGlyph>
    <TTGlyph name="backslash" xMin="0" yMin="-25" xMax="569" yMax="1491">
      <contour>
        <pt x="425" y="-25" on="1"/>
        <pt x="0" y="1491" on="1"/>
        <pt x="145" y="1491" on="1"/>
        <pt x="569" y="-25" on="1"/>
      </contour>
    </TTGlyph>
    <TTGlyph name="bar" xMin="188" yMin="-431" xMax="345" yMax="1491">
      <contour>
        <pt x="188" y="-431" on="1"/>
        <pt x="188" y="1491" on="1"/>
        <pt x="345" y="1491" on="1"/>
        <pt x="345" y="-431" on="1"/>
      </contour>
    </TTGlyph>
    <TTGlyph name="braceleft" xMin="57" yMin="-431" xMax="636" yMax="1491">
      <contour>
        <pt x="57" y="612" on="1"/>
        <pt x="134" y="614" on="0"/>
        <pt x="231" y="693" on="0"/>
        <pt x="263" y="831" on="0"/>
        <pt x="265" y="1165" on="0"/>
        <pt x="270" y="1218" on="1"/>
        <pt x="279" y="1302" on="0"/>
        <pt x="328" y="1404" on="0"/>
        <pt x="400" y="1465" on="0"/>
        <pt x="456" y="1481" on="1"/>
        <pt x="494" y="1491" on="0"/>
        <pt x="580" y="1491" on="1"/>
        <pt x="636" y="1491" on="1"/>
        <pt x="636" y="1334" on="1"/>
        <pt x="605" y="1334" on="1"/>
        <pt x="501" y="1334" on="0"/>
        <pt x="433" y="1259" on="0"/>
        <pt x="433" y="1129" on="1"/>
        <pt x="433" y="867" on="0"/>
        <pt x="422" y="798" on="1"/>
        <pt x="404" y="691" on="0"/>
        <pt x="317" y="575" on="0"/>
        <pt x="224" y="530" on="1"/>
        <pt x="334" y="484" on="0"/>
        <pt x="433" y="295" on="0"/>
        <pt x="433" y="80" on="1"/>
        <pt x="433" y="-115" on="0"/>
        <pt x="437" y="-152" on="1"/>
        <pt x="445" y="-220" on="0"/>
        <pt x="510" y="-274" on="0"/>
        <pt x="605" y="-274" on="1"/>
        <pt x="636" y="-274" on="1"/>
        <pt x="636" y="-431" on="1"/>
        <pt x="580" y="-431" on="1"/>
        <pt x="482" y="-431" on="0"/>
        <pt x="438" y="-415" on="1"/>
        <pt x="374" y="-392" on="0"/>
        <pt x="290" y="-289" on="0"/>
        <pt x="265" y="-131" on="0"/>
        <pt x="263" y="229" on="0"/>
        <pt x="231" y="367" on="0"/>
        <pt x="134" y="447" on="0"/>
        <pt x="57" y="449" on="1"/>
      </contour>
    </TTGlyph>
    <TTGlyph name="braceright" xMin="47" yMin="-431" xMax="626" yMax="1491">
      <contour>
        <pt x="626" y="612" on="1"/>
        <pt x="626" y="449" on="1"/>
        <pt x="549" y="447" on="0"/>
        <pt x="452" y="367" on="0"/>
        <pt x="420" y="230" on="0"/>
        <pt x="418" y="-104" on="0"/>
        <pt x="413" y="-157" on="1"/>
        <pt x="404" y="-242" on="0"/>
        <pt x="355" y="-343" on="0"/>
        <pt x="283" y="-404" on="0"/>
        <pt x="227" y="-420" on="1"/>
        <pt x="189" y="-431" on="0"/>
        <pt x="103" y="-431" on="1"/>
        <pt x="47" y="-431" on="1"/>
        <pt x="47" y="-274" on="1"/>
        <pt x="78" y="-274" on="1"/>
        <pt x="182" y="-274" on="0"/>
        <pt x="250" y="-199" on="0"/>
        <pt x="250" y="-68" on="1"/>
        <pt x="250" y="182" on="0"/>
        <pt x="259" y="249" on="1"/>
        <pt x="275" y="360" on="0"/>
        <pt x="371" y="493" on="0"/>
        <pt x="459" y="530" on="1"/>
        <pt x="344" y="585" on="0"/>
        <pt x="250" y="766" on="0"/>
        <pt x="250" y="981" on="1"/>
        <pt x="250" y="1176" on="0"/>
        <pt x="245" y="1214" on="1"/>
        <pt x="238" y="1281" on="0"/>
        <pt x="173" y="1334" on="0"/>
        <pt x="78" y="1334" on="1"/>
        <pt x="47" y="1334" on="1"/>
        <pt x="47" y="1491" on="1"/>
        <pt x="103" y="1491" on="1"/>
        <pt x="201" y="1491" on="0"/>
        <pt x="245" y="1475" on="1"/>
        <pt x="309" y="1453" on="0"/>
        <pt x="393" y="1349" on="0"/>
        <pt x="418" y="1191" on="0"/>
        <pt x="420" y="831" on="0"/>
        <pt x="452" y="694" on="0"/>
        <pt x="549" y="614" on="0"/>
      </contour>
    </TTGlyph>
    <TTGlyph name="bracketleft" xMin="139" yMin="-407" xMax="536" yMax="1466">
      <contour>
        <pt x="139" y="-407" on="1"/>
        <pt x="139" y="1466" on="1"/>
        <pt x="536" y="1466" on="1"/>
        <pt x="536" y="1317" on="1"/>
        <pt x="319" y="1317" on="1"/>
        <pt x="319" y="-258" on="1"/>
        <pt x="536" y="-258" on="1"/>
        <pt x="536" y="-407" on="1"/>
      </contour>
    </TTGlyph>
    <TTGlyph name="bracketright" xMin="39" yMin="-407" xMax="436" yMax="1466">
      <contour>
        <pt x="436" y="-407" on="1"/>
        <pt x="39" y="-407" on="1"/>
        <pt x="39" y="-258" on="1"/>
        <pt x="256" y="-258" on="1"/>
        <pt x="256" y="1317" on="1"/>
        <pt x="39" y="1317" on="1"/>
        <pt x="39" y="1466" on="1"/>
        <pt x="436" y="1466" on="1"/>
      </contour>
    </TTGlyph>
    <TTGlyph name="c" xMin="80" yMin="-24" xMax="1005" yMax="1086">
      <contour>
        <pt x="828" y="389" on="1"/>
        <pt x="1005" y="366" on="1"/>
        <pt x="976" y="183" on="0"/>
        <pt x="737" y="-24" on="0"/>
        <pt x="563" y="-24" on="1"/>
        <pt x="345" y="-24" on="0"/>
        <pt x="80" y="261" on="0"/>
        <pt x="80" y="527" on="1"/>
        <pt x="80" y="699" on="0"/>
        <pt x="194" y="957" on="0"/>
        <pt x="427" y="1086" on="0"/>
        <pt x="564" y="1086" on="1"/>
        <pt x="737" y="1086" on="0"/>
        <pt x="957" y="911" on="0"/>
        <pt x="988" y="750" on="1"/>
        <pt x="813" y="723" on="1"/>
        <pt x="788" y="830" on="0"/>
        <pt x="661" y="938" on="0"/>
        <pt x="571" y="938" on="1"/>
        <pt x="435" y="938" on="0"/>
        <pt x="265" y="743" on="0"/>
        <pt x="265" y="532" on="1"/>
        <pt x="265" y="318" on="0"/>
        <pt x="429" y="124" on="0"/>
        <pt x="561" y="124" on="1"/>
        <pt x="667" y="124" on="0"/>
        <pt x="809" y="254" on="0"/>
      </contour>
    </TTGlyph>
    <TTGlyph name="colon" xMin="185" yMin="0" xMax="390" yMax="1062">
      <contour>
        <pt x="185" y="857" on="1"/>
        <pt x="185" y="1062" on="1"/>
        <pt x="390" y="1062" on="1"/>
        <pt x="390" y="857" on="1"/>
      </contour>
      <contour>
        <pt x="185" y="0" on="1"/>
        <pt x="185" y="205" on="1"/>
        <pt x="390" y="205" on="1"/>
        <pt x="390" y="0" on="1"/>
      </contour>
    </TTGlyph>
    <TTGlyph name="comma" xMin="170" yMin="-290" xMax="387" yMax="205">
      <contour>
        <pt x="182" y="0" on="1"/>
        <pt x="182" y="205" on="1"/>
        <pt x="387" y="205" on="1"/>
        <pt x="387" y="0" on="1"/>
        <pt x="387" y="-113" on="0"/>
        <pt x="307" y="-252" on="0"/>
        <pt x="220" y="-290" on="1"/>
        <pt x="170" y="-213" on="1"/>
        <pt x="227" y="-188" on="0"/>
        <pt x="281" y="-91" on="0"/>
        <pt x="284" y="0" on="1"/>
      </contour>
    </TTGlyph>
    <TTGlyph name="d" xMin="70" yMin="-24" xMax="991" yMax="1466">
      <contour>
        <pt x="824" y="0" on="1"/>
        <pt x="824" y="134" on="1"/>
        <pt x="723" y="-24" on="0"/>
        <pt x="527" y="-24" on="1"/>
        <pt x="400" y="-24" on="0"/>
        <pt x="187" y="116" on="0"/>
        <pt x="70" y="367" on="0"/>
        <pt x="70" y="530" on="1"/>
        <pt x="70" y="689" on="0"/>
        <pt x="176" y="948" on="0"/>
        <pt x="388" y="1086" on="0"/>
        <pt x="519" y="1086" on="1"/>
        <pt x="615" y="1086" on="0"/>
        <pt x="765" y="1005" on="0"/>
        <pt x="812" y="940" on="1"/>
        <pt x="812" y="1466" on="1"/>
        <pt x="991" y="1466" on="1"/>
        <pt x="991" y="0" on="1"/>
      </contour>
      <contour>
        <pt x="255" y="530" on="1"/>
        <pt x="255" y="326" on="0"/>
        <pt x="427" y="124" on="0"/>
        <pt x="544" y="124" on="1"/>
        <pt x="662" y="124" on="0"/>
        <pt x="827" y="317" on="0"/>
        <pt x="827" y="515" on="1"/>
        <pt x="827" y="733" on="0"/>
        <pt x="659" y="937" on="0"/>
        <pt x="536" y="937" on="1"/>
        <pt x="416" y="937" on="0"/>
        <pt x="255" y="741" on="0"/>
      </contour>
    </TTGlyph>
    <TTGlyph name="dollar" xMin="73" yMin="-211" xMax="1043" yMax="1601">
      <contour>
        <pt x="510" y="-211" on="1"/>
        <pt x="510" y="-31" on="1"/>
        <pt x="375" y="-14" on="0"/>
        <pt x="206" y="73" on="0"/>
        <pt x="83" y="267" on="0"/>
        <pt x="73" y="407" on="1"/>
        <pt x="254" y="441" on="1"/>
        <pt x="275" y="296" on="0"/>
        <pt x="328" y="228" on="1"/>
        <pt x="404" y="132" on="0"/>
        <pt x="510" y="121" on="1"/>
        <pt x="510" y="694" on="1"/>
        <pt x="399" y="715" on="0"/>
        <pt x="283" y="780" on="1"/>
        <pt x="197" y="828" on="0"/>
        <pt x="104" y="998" on="0"/>
        <pt x="104" y="1106" on="1"/>
        <pt x="104" y="1298" on="0"/>
        <pt x="240" y="1417" on="1"/>
        <pt x="331" y="1497" on="0"/>
        <pt x="510" y="1515" on="1"/>
        <pt x="510" y="1601" on="1"/>
        <pt x="616" y="1601" on="1"/>
        <pt x="616" y="1515" on="1"/>
        <pt x="773" y="1500" on="0"/>
        <pt x="865" y="1423" on="1"/>
        <pt x="983" y="1325" on="0"/>
        <pt x="1007" y="1154" on="1"/>
        <pt x="821" y="1126" on="1"/>
        <pt x="805" y="1232" on="0"/>
        <pt x="704" y="1345" on="0"/>
        <pt x="616" y="1363" on="1"/>
        <pt x="616" y="844" on="1"/>
        <pt x="752" y="810" on="0"/>
        <pt x="796" y="791" on="1"/>
        <pt x="880" y="754" on="0"/>
        <pt x="986" y="648" on="0"/>
        <pt x="1043" y="502" on="0"/>
        <pt x="1043" y="417" on="1"/>
        <pt x="1043" y="230" on="0"/>
        <pt x="805" y="-20" on="0"/>
        <pt x="616" y="-29" on="1"/>
        <pt x="616" y="-211" on="1"/>
      </contour>
      <contour>
        <pt x="510" y="1365" on="1"/>
        <pt x="405" y="1349" on="0"/>
        <pt x="284" y="1213" on="0"/>
        <pt x="284" y="1120" on="1"/>
        <pt x="284" y="1028" on="0"/>
        <pt x="387" y="904" on="0"/>
        <pt x="510" y="867" on="1"/>
      </contour>
      <contour>
        <pt x="616" y="121" on="1"/>
        <pt x="721" y="134" on="0"/>
        <pt x="858" y="290" on="0"/>
        <pt x="858" y="405" on="1"/>
        <pt x="858" y="503" on="0"/>
        <pt x="761" y="622" on="0"/>
        <pt x="616" y="669" on="1"/>
      </contour>
    </TTGlyph>
    <TTGlyph name="e" xMin="75" yMin="-24" xMax="1054" yMax="1086">
      <contour>
        <pt x="862" y="342" on="1"/>
        <pt x="1048" y="319" on="1"/>
        <pt x="1004" y="156" on="0"/>
        <pt x="766" y="-24" on="0"/>
        <pt x="581" y="-24" on="1"/>
        <pt x="348" y="-24" on="0"/>
        <pt x="75" y="263" on="0"/>
        <pt x="75" y="522" on="1"/>
        <pt x="75" y="790" on="0"/>
        <pt x="351" y="1086" on="0"/>
        <pt x="571" y="1086" on="1"/>
        <pt x="784" y="1086" on="0"/>
        <pt x="1054" y="796" on="0"/>
        <pt x="1054" y="533" on="1"/>
        <pt x="1054" y="517" on="0"/>
        <pt x="1053" y="485" on="1"/>
        <pt x="261" y="485" on="1"/>
        <pt x="271" y="310" on="0"/>
        <pt x="449" y="124" on="0"/>
        <pt x="582" y="124" on="1"/>
        <pt x="681" y="124" on="0"/>
        <pt x="821" y="228" on="0"/>
      </contour>
      <contour>
        <pt x="271" y="633" on="1"/>
        <pt x="864" y="633" on="1"/>
        <pt x="852" y="767" on="0"/>
        <pt x="796" y="834" on="1"/>
        <pt x="710" y="938" on="0"/>
        <pt x="573" y="938" on="1"/>
        <pt x="449" y="938" on="0"/>
        <pt x="280" y="772" on="0"/>
      </contour>
    </TTGlyph>
    <TTGlyph name="eight" xMin="83" yMin="-25" xMax="1049" yMax="1472">
      <contour>
        <pt x="362" y="795" on="1"/>
        <pt x="250" y="836" on="0"/>
        <pt x="142" y="988" on="0"/>
        <pt x="142" y="1094" on="1"/>
        <pt x="142" y="1254" on="0"/>
        <pt x="372" y="1472" on="0"/>
        <pt x="563" y="1472" on="1"/>
        <pt x="755" y="1472" on="0"/>
        <pt x="989" y="1249" on="0"/>
        <pt x="989" y="1089" on="1"/>
        <pt x="989" y="987" on="0"/>
        <pt x="882" y="836" on="0"/>
        <pt x="773" y="795" on="1"/>
        <pt x="908" y="751" on="0"/>
        <pt x="1049" y="555" on="0"/>
        <pt x="1049" y="419" on="1"/>
        <pt x="1049" y="231" on="0"/>
        <pt x="783" y="-25" on="0"/>
        <pt x="566" y="-25" on="1"/>
        <pt x="349" y="-25" on="0"/>
        <pt x="83" y="232" on="0"/>
        <pt x="83" y="424" on="1"/>
        <pt x="83" y="567" on="0"/>
        <pt x="228" y="760" on="0"/>
      </contour>
      <contour>
        <pt x="326" y="1100" on="1"/>
        <pt x="326" y="996" on="0"/>
        <pt x="460" y="864" on="0"/>
        <pt x="567" y="864" on="1"/>
        <pt x="671" y="864" on="0"/>
        <pt x="804" y="995" on="0"/>
        <pt x="804" y="1090" on="1"/>
        <pt x="804" y="1189" on="0"/>
        <pt x="667" y="1324" on="0"/>
        <pt x="565" y="1324" on="1"/>
        <pt x="462" y="1324" on="0"/>
        <pt x="326" y="1192" on="0"/>
      </contour>
      <contour>
        <pt x="268" y="423" on="1"/>
        <pt x="268" y="346" on="0"/>
        <pt x="341" y="202" on="0"/>
        <pt x="485" y="123" on="0"/>
        <pt x="568" y="123" on="1"/>
        <pt x="697" y="123" on="0"/>
        <pt x="865" y="289" on="0"/>
        <pt x="865" y="417" on="1"/>
        <pt x="865" y="547" on="0"/>
        <pt x="692" y="717" on="0"/>
        <pt x="562" y="717" on="1"/>
        <pt x="435" y="717" on="0"/>
        <pt x="268" y="549" on="0"/>
      </contour>
    </TTGlyph>
    <TTGlyph name="equal" xMin="114" yMin="417" xMax="1082" yMax="1030">
      <contour>
        <pt x="1082" y="862" on="1"/>
        <pt x="114" y="862" on="1"/>
        <pt x="114" y="1030" on="1"/>
        <pt x="1082" y="1030" on="1"/>
      </contour>
      <contour>
        <pt x="1082" y="417" on="1"/>
        <pt x="114" y="417" on="1"/>
        <pt x="114" y="585" on="1"/>
        <pt x="1082" y="585" on="1"/>
      </contour>
    </TTGlyph>
    <TTGlyph name="exclam" xMin="176" yMin="0" xMax="399" yMax="1466">
      <contour>
        <pt x="231" y="364" on="1"/>
        <pt x="176" y="1141" on="1"/>
        <pt x="176" y="1466" on="1"/>
        <pt x="399" y="1466" on="1"/>
        <pt x="399" y="1141" on="1"/>
        <pt x="347" y="364" on="1"/>
      </contour>
      <contour>
        <pt x="184" y="0" on="1"/>
        <pt x="184" y="205" on="1"/>
        <pt x="391" y="205" on="1"/>
        <pt x="391" y="0" on="1"/>
      </contour>
    </TTGlyph>
    <TTGlyph name="f" xMin="19" yMin="0" xMax="640" yMax="1491">
      <contour>
        <pt x="178" y="0" on="1"/>
        <pt x="178" y="922" on="1"/>
        <pt x="19" y="922" on="1"/>
        <pt x="19" y="1062" on="1"/>
        <pt x="178" y="1062" on="1"/>
        <pt x="178" y="1175" on="1"/>
        <pt x="178" y="1282" on="0"/>
        <pt x="197" y="1334" on="1"/>
        <pt x="223" y="1404" on="0"/>
        <pt x="354" y="1491" on="0"/>
        <pt x="472" y="1491" on="1"/>
        <pt x="548" y="1491" on="0"/>
        <pt x="640" y="1473" on="1"/>
        <pt x="613" y="1316" on="1"/>
        <pt x="557" y="1326" on="0"/>
        <pt x="507" y="1326" on="1"/>
        <pt x="425" y="1326" on="0"/>
        <pt x="357" y="1256" on="0"/>
        <pt x="357" y="1160" on="1"/>
        <pt x="357" y="1062" on="1"/>
        <pt x="564" y="1062" on="1"/>
        <pt x="564" y="922" on="1"/>
        <pt x="357" y="922" on="1"/>
        <pt x="357" y="0" on="1"/>
      </contour>
    </TTGlyph>
    <TTGlyph name="five" xMin="85" yMin="-25" xMax="1057" yMax="1446">
      <contour>
        <pt x="85" y="384" on="1"/>
        <pt x="274" y="400" on="1"/>
        <pt x="295" y="262" on="0"/>
        <pt x="448" y="123" on="0"/>
        <pt x="556" y="123" on="1"/>
        <pt x="686" y="123" on="0"/>
        <pt x="866" y="319" on="0"/>
        <pt x="866" y="481" on="1"/>
        <pt x="866" y="635" on="0"/>
        <pt x="693" y="813" on="0"/>
        <pt x="553" y="813" on="1"/>
        <pt x="466" y="813" on="0"/>
        <pt x="326" y="734" on="0"/>
        <pt x="286" y="671" on="1"/>
        <pt x="117" y="693" on="1"/>
        <pt x="259" y="1446" on="1"/>
        <pt x="988" y="1446" on="1"/>
        <pt x="988" y="1274" on="1"/>
        <pt x="403" y="1274" on="1"/>
        <pt x="324" y="880" on="1"/>
        <pt x="456" y="972" on="0"/>
        <pt x="601" y="972" on="1"/>
        <pt x="793" y="972" on="0"/>
        <pt x="1057" y="706" on="0"/>
        <pt x="1057" y="497" on="1"/>
        <pt x="1057" y="298" on="0"/>
        <pt x="941" y="153" on="1"/>
        <pt x="800" y="-25" on="0"/>
        <pt x="556" y="-25" on="1"/>
        <pt x="356" y="-25" on="0"/>
        <pt x="103" y="199" on="0"/>
      </contour>
    </TTGlyph>
    <TTGlyph name="four" xMin="26" yMin="0" xMax="1040" yMax="1466">
      <contour>
        <pt x="662" y="0" on="1"/>
        <pt x="662" y="351" on="1"/>
        <pt x="26" y="351" on="1"/>
        <pt x="26" y="516" on="1"/>
        <pt x="695" y="1466" on="1"/>
        <pt x="842" y="1466" on="1"/>
        <pt x="842" y="516" on="1"/>
        <pt x="1040" y="516" on="1"/>
        <pt x="1040" y="351" on="1"/>
        <pt x="842" y="351" on="1"/>
        <pt x="842" y="0" on="1"/>
      </contour>
      <contour>
        <pt x="662" y="516" on="1"/>
        <pt x="662" y="1177" on="1"/>
        <pt x="203" y="516" on="1"/>
      </contour>
    </TTGlyph>
    <TTGlyph name="g" xMin="66" yMin="-431" xMax="1002" yMax="1086">
      <contour>
        <pt x="102" y="-88" on="1"/>
        <pt x="277" y="-114" on="1"/>
        <pt x="288" y="-195" on="0"/>
        <pt x="338" y="-232" on="1"/>
        <pt x="405" y="-282" on="0"/>
        <pt x="521" y="-282" on="1"/>
        <pt x="646" y="-282" on="0"/>
        <pt x="782" y="-182" on="0"/>
        <pt x="806" y="-92" on="1"/>
        <pt x="820" y="-37" on="0"/>
        <pt x="819" y="139" on="1"/>
        <pt x="701" y="0" on="0"/>
        <pt x="525" y="0" on="1"/>
        <pt x="306" y="0" on="0"/>
        <pt x="66" y="316" on="0"/>
        <pt x="66" y="537" on="1"/>
        <pt x="66" y="689" on="0"/>
        <pt x="176" y="946" on="0"/>
        <pt x="385" y="1086" on="0"/>
        <pt x="526" y="1086" on="1"/>
        <pt x="714" y="1086" on="0"/>
        <pt x="836" y="934" on="1"/>
        <pt x="836" y="1062" on="1"/>
        <pt x="1002" y="1062" on="1"/>
        <pt x="1002" y="144" on="1"/>
        <pt x="1002" y="-104" on="0"/>
        <pt x="901" y="-311" on="0"/>
        <pt x="682" y="-431" on="0"/>
        <pt x="522" y="-431" on="1"/>
        <pt x="332" y="-431" on="0"/>
        <pt x="98" y="-260" on="0"/>
      </contour>
      <contour>
        <pt x="251" y="550" on="1"/>
        <pt x="251" y="341" on="0"/>
        <pt x="417" y="149" on="0"/>
        <pt x="542" y="149" on="1"/>
        <pt x="666" y="149" on="0"/>
        <pt x="834" y="340" on="0"/>
        <pt x="834" y="544" on="1"/>
        <pt x="834" y="739" on="0"/>
        <pt x="661" y="937" on="0"/>
        <pt x="539" y="937" on="1"/>
        <pt x="419" y="937" on="0"/>
        <pt x="251" y="742" on="0"/>
      </contour>
    </TTGlyph>
    <TTGlyph name="grave" xMin="89" yMin="1194" xMax="465" yMax="1474">
      <contour>
        <pt x="465" y="1194" on="1"/>
        <pt x="320" y="1194" on="1"/>
        <pt x="89" y="1474" on="1"/>
        <pt x="330" y="1474" on="1"/>
      </contour>
    </TTGlyph>
    <TTGlyph name="greater" xMin="112" yMin="226" xMax="1083" yMax="1219">
      <contour>
        <pt x="1083" y="641" on="1"/>
        <pt x="112" y="226" on="1"/>
        <pt x="112" y="405" on="1"/>
        <pt x="881" y="724" on="1"/>
        <pt x="112" y="1040" on="1"/>
        <pt x="112" y="1219" on="1"/>
        <pt x="1083" y="809" on="1"/>
      </contour>
    </TTGlyph>
    <TTGlyph name="h" xMin="135" yMin="0" xMax="1000" yMax="1466">
      <contour>
        <pt x="135" y="0" on="1"/>
        <pt x="135" y="1466" on="1"/>
        <pt x="315" y="1466" on="1"/>
        <pt x="315" y="940" on="1"/>
        <pt x="441" y="1086" on="0"/>
        <pt x="633" y="1086" on="1"/>
        <pt x="751" y="1086" on="0"/>
        <pt x="925" y="993" on="0"/>
        <pt x="1000" y="829" on="0"/>
        <pt x="1000" y="673" on="1"/>
        <pt x="1000" y="0" on="1"/>
        <pt x="820" y="0" on="1"/>
        <pt x="820" y="673" on="1"/>
        <pt x="820" y="808" on="0"/>
        <pt x="703" y="931" on="0"/>
        <pt x="596" y="931" on="1"/>
        <pt x="516" y="931" on="0"/>
        <pt x="375" y="848" on="0"/>
        <pt x="315" y="706" on="0"/>
        <pt x="315" y="581" on="1"/>
        <pt x="315" y="0" on="1"/>
      </contour>
    </TTGlyph>
    <TTGlyph name="hyphen" xMin="65" yMin="440" xMax="618" yMax="621">
      <contour>
        <pt x="65" y="440" on="1"/>
        <pt x="65" y="621" on="1"/>
        <pt x="618" y="621" on="1"/>
        <pt x="618" y="440" on="1"/>
      </contour>
    </TTGlyph>
    <TTGlyph name="i" xMin="136" yMin="0" xMax="316" yMax="1466">
      <contour>
        <pt x="136" y="1259" on="1"/>
        <pt x="136" y="1466" on="1"/>
        <pt x="316" y="1466" on="1"/>
        <pt x="316" y="1259" on="1"/>
      </contour>
      <contour>
        <pt x="136" y="0" on="1"/>
        <pt x="136" y="1062" on="1"/>
        <pt x="316" y="1062" on="1"/>
        <pt x="316" y="0" on="1"/>
      </contour>
    </TTGlyph>
    <TTGlyph name="j" xMin="-94" yMin="-431" xMax="314" yMax="1466">
      <contour>
        <pt x="134" y="1257" on="1"/>
        <pt x="134" y="1466" on="1"/>
        <pt x="314" y="1466" on="1"/>
        <pt x="314" y="1257" on="1"/>
      </contour>
      <contour>
        <pt x="-94" y="-412" on="1"/>
        <pt x="-60" y="-259" on="1"/>
        <pt x="-6" y="-273" on="0"/>
        <pt x="25" y="-273" on="1"/>
        <pt x="80" y="-273" on="0"/>
        <pt x="134" y="-200" on="0"/>
        <pt x="134" y="-54" on="1"/>
        <pt x="134" y="1062" on="1"/>
        <pt x="314" y="1062" on="1"/>
        <pt x="314" y="-58" on="1"/>
        <pt x="314" y="-254" on="0"/>
        <pt x="263" y="-331" on="1"/>
        <pt x="198" y="-431" on="0"/>
        <pt x="47" y="-431" on="1"/>
        <pt x="-26" y="-431" on="0"/>
      </contour>
    </TTGlyph>
    <TTGlyph name="k" xMin="136" yMin="0" xMax="1016" yMax="1466">
      <contour>
        <pt x="136" y="0" on="1"/>
        <pt x="136" y="1466" on="1"/>
        <pt x="316" y="1466" on="1"/>
        <pt x="316" y="630" on="1"/>
        <pt x="742" y="1062" on="1"/>
        <pt x="975" y="1062" on="1"/>
        <pt x="569" y="668" on="1"/>
        <pt x="1016" y="0" on="1"/>
        <pt x="794" y="0" on="1"/>
        <pt x="443" y="543" on="1"/>
        <pt x="316" y="421" on="1"/>
        <pt x="316" y="0" on="1"/>
      </contour>
    </TTGlyph>
    <TTGlyph name="l" xMin="131" yMin="0" xMax="311" yMax="1466">
      <contour>
        <pt x="131" y="0" on="1"/>
        <pt x="131" y="1466" on="1"/>
        <pt x="311" y="1466" on="1"/>
        <pt x="311" y="0" on="1"/>
      </contour>
    </TTGlyph>
    <TTGlyph name="less" xMin="112" yMin="226" xMax="1083" yMax="1219">
      <contour>
        <pt x="112" y="641" on="1"/>
        <pt x="112" y="809" on="1"/>
        <pt x="1083" y="1219" on="1"/>
        <pt x="1083" y="1040" on="1"/>
        <pt x="313" y="724" on="1"/>
        <pt x="1083" y="405" on="1"/>
        <pt x="1083" y="226" on="1"/>
      </contour>
    </TTGlyph>
    <TTGlyph name="m" xMin="135" yMin="0" xMax="1574" yMax="1086">
      <contour>
        <pt x="135" y="0" on="1"/>
        <pt x="135" y="1062" on="1"/>
        <pt x="296" y="1062" on="1"/>
        <pt x="296" y="913" on="1"/>
        <pt x="346" y="991" on="0"/>
        <pt x="512" y="1086" on="0"/>
        <pt x="618" y="1086" on="1"/>
        <pt x="736" y="1086" on="0"/>
        <pt x="887" y="988" on="0"/>
        <pt x="918" y="900" on="1"/>
        <pt x="1044" y="1086" on="0"/>
        <pt x="1246" y="1086" on="1"/>
        <pt x="1404" y="1086" on="0"/>
        <pt x="1574" y="911" on="0"/>
        <pt x="1574" y="729" on="1"/>
        <pt x="1574" y="0" on="1"/>
        <pt x="1395" y="0" on="1"/>
        <pt x="1395" y="669" on="1"/>
        <pt x="1395" y="777" on="0"/>
        <pt x="1360" y="872" on="0"/>
        <pt x="1268" y="930" on="0"/>
        <pt x="1206" y="930" on="1"/>
        <pt x="1094" y="930" on="0"/>
        <pt x="946" y="781" on="0"/>
        <pt x="946" y="617" on="1"/>
        <pt x="946" y="0" on="1"/>
        <pt x="766" y="0" on="1"/>
        <pt x="766" y="690" on="1"/>
        <pt x="766" y="810" on="0"/>
        <pt x="678" y="930" on="0"/>
        <pt x="578" y="930" on="1"/>
        <pt x="502" y="930" on="0"/>
        <pt x="373" y="850" on="0"/>
        <pt x="315" y="696" on="0"/>
        <pt x="315" y="551" on="1"/>
        <pt x="315" y="0" on="1"/>
      </contour>
    </TTGlyph>
    <TTGlyph name="n" xMin="135" yMin="0" xMax="998" yMax="1086">
      <contour>
        <pt x="135" y="0" on="1"/>
        <pt x="135" y="1062" on="1"/>
        <pt x="297" y="1062" on="1"/>
        <pt x="297" y="911" on="1"/>
        <pt x="414" y="1086" on="0"/>
        <pt x="635" y="1086" on="1"/>
        <pt x="731" y="1086" on="0"/>
        <pt x="892" y="1017" on="0"/>
        <pt x="972" y="905" on="0"/>
        <pt x="988" y="828" on="1"/>
        <pt x="998" y="778" on="0"/>
        <pt x="998" y="653" on="1"/>
        <pt x="998" y="0" on="1"/>
        <pt x="818" y="0" on="1"/>
        <pt x="818" y="646" on="1"/>
        <pt x="818" y="756" on="0"/>
        <pt x="776" y="865" on="0"/>
        <pt x="669" y="930" on="0"/>
        <pt x="597" y="930" on="1"/>
        <pt x="482" y="930" on="0"/>
        <pt x="315" y="784" on="0"/>
        <pt x="315" y="580" on="1"/>
        <pt x="315" y="0" on="1"/>
      </contour>
    </TTGlyph>
    <TTGlyph name="nine" xMin="85" yMin="-25" xMax="1049" yMax="1472">
      <contour>
        <pt x="112" y="339" on="1"/>
        <pt x="285" y="355" on="1"/>
        <pt x="307" y="233" on="0"/>
        <pt x="431" y="123" on="0"/>
        <pt x="528" y="123" on="1"/>
        <pt x="611" y="123" on="0"/>
        <pt x="736" y="199" on="0"/>
        <pt x="816" y="326" on="0"/>
        <pt x="870" y="542" on="0"/>
        <pt x="870" y="654" on="1"/>
        <pt x="870" y="666" on="0"/>
        <pt x="869" y="690" on="1"/>
        <pt x="815" y="604" on="0"/>
        <pt x="628" y="497" on="0"/>
        <pt x="519" y="497" on="1"/>
        <pt x="337" y="497" on="0"/>
        <pt x="85" y="761" on="0"/>
        <pt x="85" y="977" on="1"/>
        <pt x="85" y="1200" on="0"/>
        <pt x="348" y="1472" on="0"/>
        <pt x="546" y="1472" on="1"/>
        <pt x="689" y="1472" on="0"/>
        <pt x="926" y="1318" on="0"/>
        <pt x="1049" y="1033" on="0"/>
        <pt x="1049" y="763" on="1"/>
        <pt x="1049" y="482" on="0"/>
        <pt x="927" y="149" on="0"/>
        <pt x="686" y="-25" on="0"/>
        <pt x="524" y="-25" on="1"/>
        <pt x="352" y="-25" on="0"/>
        <pt x="134" y="166" on="0"/>
      </contour>
      <contour>
        <pt x="849" y="986" on="1"/>
        <pt x="849" y="1141" on="0"/>
        <pt x="684" y="1323" on="0"/>
        <pt x="568" y="1323" on="1"/>
        <pt x="448" y="1323" on="0"/>
        <pt x="270" y="1127" on="0"/>
        <pt x="270" y="971" on="1"/>
        <pt x="270" y="831" on="0"/>
        <pt x="439" y="656" on="0"/>
        <pt x="563" y="656" on="1"/>
        <pt x="688" y="656" on="0"/>
        <pt x="849" y="831" on="0"/>
      </contour>
    </TTGlyph>
    <TTGlyph name="numbersign" xMin="21" yMin="-25" xMax="1113" yMax="1491">
      <contour>
        <pt x="103" y="-25" on="1"/>
        <pt x="190" y="401" on="1"/>
        <pt x="21" y="401" on="1"/>
        <pt x="21" y="550" on="1"/>
        <pt x="220" y="550" on="1"/>
        <pt x="294" y="913" on="1"/>
        <pt x="21" y="913" on="1"/>
        <pt x="21" y="1062" on="1"/>
        <pt x="324" y="1062" on="1"/>
        <pt x="411" y="1491" on="1"/>
        <pt x="561" y="1491" on="1"/>
        <pt x="474" y="1062" on="1"/>
        <pt x="789" y="1062" on="1"/>
        <pt x="876" y="1491" on="1"/>
        <pt x="1027" y="1491" on="1"/>
        <pt x="940" y="1062" on="1"/>
        <pt x="1113" y="1062" on="1"/>
        <pt x="1113" y="913" on="1"/>
        <pt x="910" y="913" on="1"/>
        <pt x="835" y="550" on="1"/>
        <pt x="1113" y="550" on="1"/>
        <pt x="1113" y="401" on="1"/>
        <pt x="805" y="401" on="1"/>
        <pt x="718" y="-25" on="1"/>
        <pt x="568" y="-25" on="1"/>
        <pt x="654" y="401" on="1"/>
        <pt x="340" y="401" on="1"/>
        <pt x="253" y="-25" on="1"/>
      </contour>
      <contour>
        <pt x="370" y="550" on="1"/>
        <pt x="684" y="550" on="1"/>
        <pt x="759" y="913" on="1"/>
        <pt x="444" y="913" on="1"/>
      </contour>
    </TTGlyph>
    <TTGlyph name="o" xMin="68" yMin="-24" xMax="1063" yMax="1086">
      <contour>
        <pt x="68" y="531" on="1"/>
        <pt x="68" y="826" on="0"/>
        <pt x="232" y="968" on="1"/>
        <pt x="369" y="1086" on="0"/>
        <pt x="566" y="1086" on="1"/>
        <pt x="785" y="1086" on="0"/>
        <pt x="1063" y="799" on="0"/>
        <pt x="1063" y="546" on="1"/>
        <pt x="1063" y="341" on="0"/>
        <pt x="940" y="106" on="0"/>
        <pt x="705" y="-24" on="0"/>
        <pt x="566" y="-24" on="1"/>
        <pt x="343" y="-24" on="0"/>
        <pt x="68" y="262" on="0"/>
      </contour>
      <contour>
        <pt x="253" y="531" on="1"/>
        <pt x="253" y="327" on="0"/>
        <pt x="431" y="124" on="0"/>
        <pt x="566" y="124" on="1"/>
        <pt x="700" y="124" on="0"/>
        <pt x="878" y="328" on="0"/>
        <pt x="878" y="537" on="1"/>
        <pt x="878" y="734" on="0"/>
        <pt x="699" y="937" on="0"/>
        <pt x="566" y="937" on="1"/>
        <pt x="431" y="937" on="0"/>
        <pt x="253" y="735" on="0"/>
      </contour>
    </TTGlyph>
    <TTGlyph name="one" xMin="223" yMin="0" xMax="763" yMax="1472">
      <contour>
        <pt x="763" y="0" on="1"/>
        <pt x="583" y="0" on="1"/>
        <pt x="583" y="1147" on="1"/>
        <pt x="518" y="1085" on="0"/>
        <pt x="307" y="961" on="0"/>
        <pt x="223" y="930" on="1"/>
        <pt x="223" y="1104" on="1"/>
        <pt x="374" y="1175" on="0"/>
        <pt x="600" y="1377" on="0"/>
        <pt x="647" y="1472" on="1"/>
        <pt x="763" y="1472" on="1"/>
      </contour>
    </TTGlyph>
    <TTGlyph name="p" xMin="135" yMin="-407" xMax="1057" yMax="1086">
      <contour>
        <pt x="135" y="-407" on="1"/>
        <pt x="135" y="1062" on="1"/>
        <pt x="299" y="1062" on="1"/>
        <pt x="299" y="924" on="1"/>
        <pt x="357" y="1005" on="0"/>
        <pt x="503" y="1086" on="0"/>
        <pt x="607" y="1086" on="1"/>
        <pt x="743" y="1086" on="0"/>
        <pt x="951" y="946" on="0"/>
        <pt x="1057" y="691" on="0"/>
        <pt x="1057" y="539" on="1"/>
        <pt x="1057" y="376" on="0"/>
        <pt x="940" y="115" on="0"/>
        <pt x="717" y="-24" on="0"/>
        <pt x="594" y="-24" on="1"/>
        <pt x="504" y="-24" on="0"/>
        <pt x="361" y="52" on="0"/>
        <pt x="315" y="110" on="1"/>
        <pt x="315" y="-407" on="1"/>
      </contour>
      <contour>
        <pt x="298" y="525" on="1"/>
        <pt x="298" y="320" on="0"/>
        <pt x="464" y="124" on="0"/>
        <pt x="582" y="124" on="1"/>
        <pt x="702" y="124" on="0"/>
        <pt x="873" y="327" on="0"/>
        <pt x="873" y="540" on="1"/>
        <pt x="873" y="743" on="0"/>
        <pt x="706" y="945" on="0"/>
        <pt x="590" y="945" on="1"/>
        <pt x="475" y="945" on="0"/>
        <pt x="298" y="730" on="0"/>
      </contour>
    </TTGlyph>
    <TTGlyph name="parenleft" xMin="124" yMin="-431" xMax="608" yMax="1491">
      <contour>
        <pt x="479" y="-431" on="1"/>
        <pt x="330" y="-243" on="0"/>
        <pt x="124" y="261" on="0"/>
        <pt x="124" y="531" on="1"/>
        <pt x="124" y="769" on="0"/>
        <pt x="201" y="987" on="1"/>
        <pt x="291" y="1240" on="0"/>
        <pt x="479" y="1491" on="1"/>
        <pt x="608" y="1491" on="1"/>
        <pt x="487" y="1283" on="0"/>
        <pt x="448" y="1194" on="1"/>
        <pt x="387" y="1056" on="0"/>
        <pt x="352" y="906" on="1"/>
        <pt x="309" y="719" on="0"/>
        <pt x="309" y="530" on="1"/>
        <pt x="309" y="49" on="0"/>
        <pt x="608" y="-431" on="1"/>
      </contour>
    </TTGlyph>
    <TTGlyph name="parenright" xMin="124" yMin="-431" xMax="608" yMax="1491">
      <contour>
        <pt x="253" y="-431" on="1"/>
        <pt x="124" y="-431" on="1"/>
        <pt x="423" y="49" on="0"/>
        <pt x="423" y="530" on="1"/>
        <pt x="423" y="718" on="0"/>
        <pt x="380" y="903" on="1"/>
        <pt x="346" y="1053" on="0"/>
        <pt x="285" y="1191" on="1"/>
        <pt x="246" y="1281" on="0"/>
        <pt x="124" y="1491" on="1"/>
        <pt x="253" y="1491" on="1"/>
        <pt x="441" y="1240" on="0"/>
        <pt x="531" y="987" on="1"/>
        <pt x="608" y="769" on="0"/>
        <pt x="608" y="531" on="1"/>
        <pt x="608" y="261" on="0"/>
        <pt x="401" y="-243" on="0"/>
      </contour>
    </TTGlyph>
    <TTGlyph name="percent" xMin="119" yMin="-54" xMax="1695" yMax="1491">
      <contour>
        <pt x="119" y="1114" on="1"/>
        <pt x="119" y="1271" on="0"/>
        <pt x="277" y="1491" on="0"/>
        <pt x="427" y="1491" on="1"/>
        <pt x="565" y="1491" on="0"/>
        <pt x="746" y="1294" on="0"/>
        <pt x="746" y="1103" on="1"/>
        <pt x="746" y="917" on="0"/>
        <pt x="563" y="716" on="0"/>
        <pt x="429" y="716" on="1"/>
        <pt x="296" y="716" on="0"/>
        <pt x="119" y="914" on="0"/>
      </contour>
      <contour>
        <pt x="432" y="1367" on="1"/>
        <pt x="365" y="1367" on="0"/>
        <pt x="276" y="1251" on="0"/>
        <pt x="276" y="1096" on="1"/>
        <pt x="276" y="955" on="0"/>
        <pt x="366" y="840" on="0"/>
        <pt x="432" y="840" on="1"/>
        <pt x="500" y="840" on="0"/>
        <pt x="589" y="956" on="0"/>
        <pt x="589" y="1110" on="1"/>
        <pt x="589" y="1252" on="0"/>
        <pt x="499" y="1367" on="0"/>
      </contour>
      <contour>
        <pt x="433" y="-54" on="1"/>
        <pt x="1235" y="1491" on="1"/>
        <pt x="1381" y="1491" on="1"/>
        <pt x="582" y="-54" on="1"/>
      </contour>
      <contour>
        <pt x="1067" y="344" on="1"/>
        <pt x="1067" y="502" on="0"/>
        <pt x="1225" y="721" on="0"/>
        <pt x="1376" y="721" on="1"/>
        <pt x="1514" y="721" on="0"/>
        <pt x="1695" y="524" on="0"/>
        <pt x="1695" y="333" on="1"/>
        <pt x="1695" y="147" on="0"/>
        <pt x="1512" y="-54" on="0"/>
        <pt x="1377" y="-54" on="1"/>
        <pt x="1244" y="-54" on="0"/>
        <pt x="1067" y="145" on="0"/>
      </contour>
      <contour>
        <pt x="1381" y="597" on="1"/>
        <pt x="1313" y="597" on="0"/>
        <pt x="1224" y="481" on="0"/>
        <pt x="1224" y="326" on="1"/>
        <pt x="1224" y="186" on="0"/>
        <pt x="1314" y="70" on="0"/>
        <pt x="1380" y="70" on="1"/>
        <pt x="1449" y="70" on="0"/>
        <pt x="1538" y="186" on="0"/>
        <pt x="1538" y="340" on="1"/>
        <pt x="1538" y="482" on="0"/>
        <pt x="1448" y="597" on="0"/>
      </contour>
    </TTGlyph>
    <TTGlyph name="period" xMin="186" yMin="0" xMax="391" yMax="205">
      <contour>
        <pt x="186" y="0" on="1"/>
        <pt x="186" y="205" on="1"/>
        <pt x="391" y="205" on="1"/>
        <pt x="391" y="0" on="1"/>
      </contour>
    </TTGlyph>
    <TTGlyph name="plus" xMin="114" yMin="237" xMax="1082" yMax="1206">
      <contour>
        <pt x="513" y="237" on="1"/>
        <pt x="513" y="639" on="1"/>
        <pt x="114" y="639" on="1"/>
        <pt x="114" y="807" on="1"/>
        <pt x="513" y="807" on="1"/>
        <pt x="513" y="1206" on="1"/>
        <pt x="683" y="1206" on="1"/>
        <pt x="683" y="807" on="1"/>
        <pt x="1082" y="807" on="1"/>
        <pt x="1082" y="639" on="1"/>
        <pt x="683" y="639" on="1"/>
        <pt x="683" y="237" on="1"/>
      </contour>
    </TTGlyph>
    <TTGlyph name="q" xMin="72" yMin="-407" xMax="992" yMax="1086">
      <contour>
        <pt x="812" y="-407" on="1"/>
        <pt x="812" y="113" on="1"/>
        <pt x="770" y="54" on="0"/>
        <pt x="619" y="-24" on="0"/>
        <pt x="534" y="-24" on="1"/>
        <pt x="345" y="-24" on="0"/>
        <pt x="72" y="278" on="0"/>
        <pt x="72" y="541" on="1"/>
        <pt x="72" y="701" on="0"/>
        <pt x="183" y="955" on="0"/>
        <pt x="394" y="1086" on="0"/>
        <pt x="520" y="1086" on="1"/>
        <pt x="717" y="1086" on="0"/>
        <pt x="830" y="920" on="1"/>
        <pt x="830" y="1062" on="1"/>
        <pt x="992" y="1062" on="1"/>
        <pt x="992" y="-407" on="1"/>
      </contour>
      <contour>
        <pt x="257" y="534" on="1"/>
        <pt x="257" y="329" on="0"/>
        <pt x="429" y="124" on="0"/>
        <pt x="549" y="124" on="1"/>
        <pt x="664" y="124" on="0"/>
        <pt x="830" y="319" on="0"/>
        <pt x="830" y="518" on="1"/>
        <pt x="830" y="730" on="0"/>
        <pt x="655" y="944" on="0"/>
        <pt x="537" y="944" on="1"/>
        <pt x="420" y="944" on="0"/>
        <pt x="257" y="745" on="0"/>
      </contour>
    </TTGlyph>
    <TTGlyph name="question" xMin="90" yMin="0" xMax="1036" yMax="1491">
      <contour>
        <pt x="472" y="361" on="1"/>
        <pt x="471" y="397" on="0"/>
        <pt x="471" y="415" on="1"/>
        <pt x="471" y="521" on="0"/>
        <pt x="501" y="598" on="1"/>
        <pt x="523" y="656" on="0"/>
        <pt x="572" y="715" on="1"/>
        <pt x="608" y="758" on="0"/>
        <pt x="795" y="923" on="0"/>
        <pt x="851" y="1021" on="0"/>
        <pt x="851" y="1079" on="1"/>
        <pt x="851" y="1184" on="0"/>
        <pt x="687" y="1343" on="0"/>
        <pt x="568" y="1343" on="1"/>
        <pt x="453" y="1343" on="0"/>
        <pt x="299" y="1199" on="0"/>
        <pt x="275" y="1046" on="1"/>
        <pt x="90" y="1068" on="1"/>
        <pt x="115" y="1273" on="0"/>
        <pt x="362" y="1491" on="0"/>
        <pt x="565" y="1491" on="1"/>
        <pt x="780" y="1491" on="0"/>
        <pt x="1036" y="1257" on="0"/>
        <pt x="1036" y="1091" on="1"/>
        <pt x="1036" y="995" on="0"/>
        <pt x="946" y="833" on="0"/>
        <pt x="815" y="717" on="1"/>
        <pt x="727" y="639" on="0"/>
        <pt x="673" y="565" on="0"/>
        <pt x="647" y="469" on="0"/>
        <pt x="645" y="361" on="1"/>
      </contour>
      <contour>
        <pt x="461" y="0" on="1"/>
        <pt x="461" y="205" on="1"/>
        <pt x="666" y="205" on="1"/>
        <pt x="666" y="0" on="1"/>
      </contour>
    </TTGlyph>
    <TTGlyph name="quotedbl" xMin="94" yMin="947" xMax="631" yMax="1466">
      <contour>
        <pt x="144" y="947" on="1"/>
        <pt x="94" y="1226" on="1"/>
        <pt x="94" y="1466" on="1"/>
        <pt x="299" y="1466" on="1"/>
        <pt x="299" y="1226" on="1"/>
        <pt x="254" y="947" on="1"/>
      </contour>
      <contour>
        <pt x="475" y="947" on="1"/>
        <pt x="426" y="1226" on="1"/>
        <pt x="426" y="1466" on="1"/>
        <pt x="631" y="1466" on="1"/>
        <pt x="631" y="1226" on="1"/>
        <pt x="583" y="947" on="1"/>
      </contour>
    </TTGlyph>
    <TTGlyph name="quotesingle" xMin="90" yMin="947" xMax="295" yMax="1466">
      <contour>
        <pt x="136" y="947" on="1"/>
        <pt x="90" y="1221" on="1"/>
        <pt x="90" y="1466" on="1"/>
        <pt x="295" y="1466" on="1"/>
        <pt x="295" y="1221" on="1"/>
        <pt x="247" y="947" on="1"/>
      </contour>
    </TTGlyph>
    <TTGlyph name="r" xMin="133" yMin="0" xMax="710" yMax="1086">
      <contour>
        <pt x="133" y="0" on="1"/>
        <pt x="133" y="1062" on="1"/>
        <pt x="295" y="1062" on="1"/>
        <pt x="295" y="901" on="1"/>
        <pt x="357" y="1014" on="0"/>
        <pt x="462" y="1086" on="0"/>
        <pt x="525" y="1086" on="1"/>
        <pt x="616" y="1086" on="0"/>
        <pt x="710" y="1028" on="1"/>
        <pt x="648" y="861" on="1"/>
        <pt x="582" y="900" on="0"/>
        <pt x="516" y="900" on="1"/>
        <pt x="457" y="900" on="0"/>
        <pt x="363" y="829" on="0"/>
        <pt x="343" y="766" on="1"/>
        <pt x="313" y="670" on="0"/>
        <pt x="313" y="556" on="1"/>
        <pt x="313" y="0" on="1"/>
      </contour>
    </TTGlyph>
    <TTGlyph name="s" xMin="63" yMin="-24" xMax="945" yMax="1086">
      <contour>
        <pt x="63" y="317" on="1"/>
        <pt x="241" y="345" on="1"/>
        <pt x="256" y="238" on="0"/>
        <pt x="393" y="124" on="0"/>
        <pt x="516" y="124" on="1"/>
        <pt x="640" y="124" on="0"/>
        <pt x="760" y="225" on="0"/>
        <pt x="760" y="293" on="1"/>
        <pt x="760" y="354" on="0"/>
        <pt x="707" y="389" on="1"/>
        <pt x="670" y="413" on="0"/>
        <pt x="523" y="450" on="1"/>
        <pt x="325" y="500" on="0"/>
        <pt x="172" y="573" on="0"/>
        <pt x="93" y="702" on="0"/>
        <pt x="93" y="780" on="1"/>
        <pt x="93" y="851" on="0"/>
        <pt x="158" y="972" on="0"/>
        <pt x="214" y="1012" on="1"/>
        <pt x="256" y="1043" on="0"/>
        <pt x="401" y="1086" on="0"/>
        <pt x="484" y="1086" on="1"/>
        <pt x="609" y="1086" on="0"/>
        <pt x="798" y="1014" on="0"/>
        <pt x="888" y="891" on="0"/>
        <pt x="905" y="788" on="1"/>
        <pt x="729" y="764" on="1"/>
        <pt x="717" y="846" on="0"/>
        <pt x="602" y="938" on="0"/>
        <pt x="497" y="938" on="1"/>
        <pt x="373" y="938" on="0"/>
        <pt x="267" y="856" on="0"/>
        <pt x="267" y="801" on="1"/>
        <pt x="267" y="766" on="0"/>
        <pt x="289" y="738" on="1"/>
        <pt x="311" y="709" on="0"/>
        <pt x="358" y="690" on="1"/>
        <pt x="385" y="680" on="0"/>
        <pt x="517" y="644" on="1"/>
        <pt x="708" y="593" on="0"/>
        <pt x="859" y="528" on="0"/>
        <pt x="945" y="404" on="0"/>
        <pt x="945" y="312" on="1"/>
        <pt x="945" y="222" on="0"/>
        <pt x="840" y="63" on="0"/>
        <pt x="642" y="-24" on="0"/>
        <pt x="517" y="-24" on="1"/>
        <pt x="310" y="-24" on="0"/>
        <pt x="93" y="148" on="0"/>
      </contour>
    </TTGlyph>
    <TTGlyph name="semicolon" xMin="170" yMin="-290" xMax="387" yMax="1062">
      <contour>
        <pt x="182" y="857" on="1"/>
        <pt x="182" y="1062" on="1"/>
        <pt x="387" y="1062" on="1"/>
        <pt x="387" y="857" on="1"/>
      </contour>
      <contour>
        <pt x="182" y="0" on="1"/>
        <pt x="182" y="205" on="1"/>
        <pt x="387" y="205" on="1"/>
        <pt x="387" y="0" on="1"/>
        <pt x="387" y="-113" on="0"/>
        <pt x="307" y="-252" on="0"/>
        <pt x="220" y="-290" on="1"/>
        <pt x="170" y="-213" on="1"/>
        <pt x="227" y="-188" on="0"/>
        <pt x="281" y="-91" on="0"/>
        <pt x="284" y="0" on="1"/>
      </contour>
    </TTGlyph>
    <TTGlyph name="seven" xMin="97" yMin="0" xMax="1046" yMax="1447">
      <contour>
        <pt x="97" y="1274" on="1"/>
        <pt x="97" y="1447" on="1"/>
        <pt x="1046" y="1447" on="1"/>
        <pt x="1046" y="1307" on="1"/>
        <pt x="906" y="1158" on="0"/>
        <pt x="631" y="664" on="0"/>
        <pt x="556" y="403" on="1"/>
        <pt x="502" y="219" on="0"/>
        <pt x="487" y="0" on="1"/>
        <pt x="302" y="0" on="1"/>
        <pt x="305" y="173" on="0"/>
        <pt x="435" y="663" on="0"/>
        <pt x="678" y="1118" on="0"/>
        <pt x="815" y="1274" on="1"/>
      </contour>
    </TTGlyph>
    <TTGlyph name="six" xMin="77" yMin="-25" xMax="1045" yMax="1472">
      <contour>
        <pt x="1019" y="1107" on="1"/>
        <pt x="840" y="1093" on="1"/>
        <pt x="816" y="1199" on="0"/>
        <pt x="772" y="1247" on="1"/>
        <pt x="699" y="1324" on="0"/>
        <pt x="592" y="1324" on="1"/>
        <pt x="506" y="1324" on="0"/>
        <pt x="441" y="1276" on="1"/>
        <pt x="356" y="1214" on="0"/>
        <pt x="258" y="976" on="0"/>
        <pt x="256" y="756" on="1"/>
        <pt x="321" y="855" on="0"/>
        <pt x="509" y="951" on="0"/>
        <pt x="612" y="951" on="1"/>
        <pt x="792" y="951" on="0"/>
        <pt x="1045" y="686" on="0"/>
        <pt x="1045" y="476" on="1"/>
        <pt x="1045" y="338" on="0"/>
        <pt x="926" y="101" on="0"/>
        <pt x="718" y="-25" on="0"/>
        <pt x="586" y="-25" on="1"/>
        <pt x="361" y="-25" on="0"/>
        <pt x="77" y="306" on="0"/>
        <pt x="77" y="686" on="1"/>
        <pt x="77" y="1111" on="0"/>
        <pt x="234" y="1304" on="1"/>
        <pt x="371" y="1472" on="0"/>
        <pt x="603" y="1472" on="1"/>
        <pt x="776" y="1472" on="0"/>
        <pt x="997" y="1278" on="0"/>
      </contour>
      <contour>
        <pt x="284" y="475" on="1"/>
        <pt x="284" y="382" on="0"/>
        <pt x="363" y="212" on="0"/>
        <pt x="505" y="123" on="0"/>
        <pt x="583" y="123" on="1"/>
        <pt x="697" y="123" on="0"/>
        <pt x="861" y="307" on="0"/>
        <pt x="861" y="465" on="1"/>
        <pt x="861" y="617" on="0"/>
        <pt x="699" y="792" on="0"/>
        <pt x="576" y="792" on="1"/>
        <pt x="454" y="792" on="0"/>
        <pt x="284" y="617" on="0"/>
      </contour>
    </TTGlyph>
    <TTGlyph name="slash" xMin="0" yMin="-25" xMax="569" yMax="1491">
      <contour>
        <pt x="0" y="-25" on="1"/>
        <pt x="425" y="1491" on="1"/>
        <pt x="569" y="1491" on="1"/>
        <pt x="145" y="-25" on="1"/>
      </contour>
    </TTGlyph>
    <TTGlyph name="t" xMin="36" yMin="-14" xMax="554" yMax="1433">
      <contour>
        <pt x="528" y="161" on="1"/>
        <pt x="554" y="2" on="1"/>
        <pt x="478" y="-14" on="0"/>
        <pt x="418" y="-14" on="1"/>
        <pt x="320" y="-14" on="0"/>
        <pt x="212" y="48" on="0"/>
        <pt x="168" y="149" on="0"/>
        <pt x="168" y="311" on="1"/>
        <pt x="168" y="922" on="1"/>
        <pt x="36" y="922" on="1"/>
        <pt x="36" y="1062" on="1"/>
        <pt x="168" y="1062" on="1"/>
        <pt x="168" y="1325" on="1"/>
        <pt x="347" y="1433" on="1"/>
        <pt x="347" y="1062" on="1"/>
        <pt x="528" y="1062" on="1"/>
        <pt x="528" y="922" on="1"/>
        <pt x="347" y="922" on="1"/>
        <pt x="347" y="301" on="1"/>
        <pt x="347" y="224" on="0"/>
        <pt x="366" y="180" on="0"/>
        <pt x="409" y="154" on="0"/>
        <pt x="449" y="154" on="1"/>
        <pt x="479" y="154" on="0"/>
      </contour>
    </TTGlyph>
    <TTGlyph name="three" xMin="86" yMin="-26" xMax="1046" yMax="1472">
      <contour>
        <pt x="86" y="387" on="1"/>
        <pt x="266" y="411" on="1"/>
        <pt x="297" y="258" on="0"/>
        <pt x="446" y="123" on="0"/>
        <pt x="553" y="123" on="1"/>
        <pt x="680" y="123" on="0"/>
        <pt x="855" y="299" on="0"/>
        <pt x="855" y="429" on="1"/>
        <pt x="855" y="553" on="0"/>
        <pt x="693" y="714" on="0"/>
        <pt x="568" y="714" on="1"/>
        <pt x="517" y="714" on="0"/>
        <pt x="441" y="694" on="1"/>
        <pt x="461" y="852" on="1"/>
        <pt x="479" y="850" on="0"/>
        <pt x="490" y="850" on="1"/>
        <pt x="605" y="850" on="0"/>
        <pt x="789" y="970" on="0"/>
        <pt x="789" y="1095" on="1"/>
        <pt x="789" y="1194" on="0"/>
        <pt x="655" y="1324" on="0"/>
        <pt x="549" y="1324" on="1"/>
        <pt x="444" y="1324" on="0"/>
        <pt x="304" y="1192" on="0"/>
        <pt x="284" y="1060" on="1"/>
        <pt x="104" y="1092" on="1"/>
        <pt x="137" y="1273" on="0"/>
        <pt x="371" y="1472" on="0"/>
        <pt x="545" y="1472" on="1"/>
        <pt x="665" y="1472" on="0"/>
        <pt x="867" y="1369" on="0"/>
        <pt x="974" y="1191" on="0"/>
        <pt x="974" y="1091" on="1"/>
        <pt x="974" y="996" on="0"/>
        <pt x="872" y="840" on="0"/>
        <pt x="772" y="794" on="1"/>
        <pt x="902" y="764" on="0"/>
        <pt x="1046" y="575" on="0"/>
        <pt x="1046" y="433" on="1"/>
        <pt x="1046" y="241" on="0"/>
        <pt x="766" y="-26" on="0"/>
        <pt x="552" y="-26" on="1"/>
        <pt x="359" y="-26" on="0"/>
        <pt x="104" y="204" on="0"/>
      </contour>
    </TTGlyph>
    <TTGlyph name="two" xMin="60" yMin="0" xMax="1031" yMax="1472">
      <contour>
        <pt x="1031" y="173" on="1"/>
        <pt x="1031" y="0" on="1"/>
        <pt x="62" y="0" on="1"/>
        <pt x="60" y="65" on="0"/>
        <pt x="83" y="125" on="1"/>
        <pt x="120" y="224" on="0"/>
        <pt x="283" y="416" on="0"/>
        <pt x="437" y="542" on="1"/>
        <pt x="676" y="738" on="0"/>
        <pt x="844" y="967" on="0"/>
        <pt x="844" y="1069" on="1"/>
        <pt x="844" y="1176" on="0"/>
        <pt x="691" y="1323" on="0"/>
        <pt x="568" y="1323" on="1"/>
        <pt x="438" y="1323" on="0"/>
        <pt x="282" y="1167" on="0"/>
        <pt x="281" y="1029" on="1"/>
        <pt x="96" y="1048" on="1"/>
        <pt x="115" y="1255" on="0"/>
        <pt x="363" y="1472" on="0"/>
        <pt x="572" y="1472" on="1"/>
        <pt x="783" y="1472" on="0"/>
        <pt x="1029" y="1238" on="0"/>
        <pt x="1029" y="1065" on="1"/>
        <pt x="1029" y="977" on="0"/>
        <pt x="957" y="807" on="0"/>
        <pt x="790" y="619" on="0"/>
        <pt x="596" y="455" on="1"/>
        <pt x="434" y="319" on="0"/>
        <pt x="342" y="222" on="0"/>
        <pt x="312" y="173" on="1"/>
      </contour>
    </TTGlyph>
    <TTGlyph name="u" xMin="131" yMin="-24" xMax="992" yMax="1062">
      <contour>
        <pt x="831" y="0" on="1"/>
        <pt x="831" y="156" on="1"/>
        <pt x="707" y="-24" on="0"/>
        <pt x="494" y="-24" on="1"/>
        <pt x="400" y="-24" on="0"/>
        <pt x="237" y="48" on="0"/>
        <pt x="158" y="157" on="0"/>
        <pt x="142" y="236" on="1"/>
        <pt x="131" y="289" on="0"/>
        <pt x="131" y="404" on="1"/>
        <pt x="131" y="1062" on="1"/>
        <pt x="311" y="1062" on="1"/>
        <pt x="311" y="473" on="1"/>
        <pt x="311" y="332" on="0"/>
        <pt x="322" y="283" on="1"/>
        <pt x="339" y="212" on="0"/>
        <pt x="449" y="131" on="0"/>
        <pt x="530" y="131" on="1"/>
        <pt x="611" y="131" on="0"/>
        <pt x="753" y="214" on="0"/>
        <pt x="812" y="357" on="0"/>
        <pt x="812" y="493" on="1"/>
        <pt x="812" y="1062" on="1"/>
        <pt x="992" y="1062" on="1"/>
        <pt x="992" y="0" on="1"/>
      </contour>
    </TTGlyph>
    <TTGlyph name="underscore" xMin="-31" yMin="-407" xMax="1162" yMax="-277">
      <contour>
        <pt x="-31" y="-407" on="1"/>
        <pt x="-31" y="-277" on="1"/>
        <pt x="1162" y="-277" on="1"/>
        <pt x="1162" y="-407" on="1"/>
      </contour>
    </TTGlyph>
    <TTGlyph name="v" xMin="26" yMin="0" xMax="1000" yMax="1062">
      <contour>
        <pt x="430" y="0" on="1"/>
        <pt x="26" y="1062" on="1"/>
        <pt x="216" y="1062" on="1"/>
        <pt x="444" y="426" on="1"/>
        <pt x="481" y="323" on="0"/>
        <pt x="512" y="212" on="1"/>
        <pt x="536" y="296" on="0"/>
        <pt x="579" y="414" on="1"/>
        <pt x="815" y="1062" on="1"/>
        <pt x="1000" y="1062" on="1"/>
        <pt x="598" y="0" on="1"/>
      </contour>
    </TTGlyph>
    <TTGlyph name="w" xMin="6" yMin="0" xMax="1463" yMax="1062">
      <contour>
        <pt x="331" y="0" on="1"/>
        <pt x="6" y="1062" on="1"/>
        <pt x="192" y="1062" on="1"/>
        <pt x="361" y="449" on="1"/>
        <pt x="424" y="221" on="1"/>
        <pt x="428" y="238" on="0"/>
        <pt x="479" y="440" on="1"/>
        <pt x="648" y="1062" on="1"/>
        <pt x="833" y="1062" on="1"/>
        <pt x="992" y="446" on="1"/>
        <pt x="1045" y="243" on="1"/>
        <pt x="1106" y="448" on="1"/>
        <pt x="1288" y="1062" on="1"/>
        <pt x="1463" y="1062" on="1"/>
        <pt x="1131" y="0" on="1"/>
        <pt x="944" y="0" on="1"/>
        <pt x="775" y="636" on="1"/>
        <pt x="734" y="817" on="1"/>
        <pt x="519" y="0" on="1"/>
      </contour>
    </TTGlyph>
    <TTGlyph name="x" xMin="15" yMin="0" xMax="1009" yMax="1062">
      <contour>
        <pt x="15" y="0" on="1"/>
        <pt x="403" y="552" on="1"/>
        <pt x="44" y="1062" on="1"/>
        <pt x="269" y="1062" on="1"/>
        <pt x="432" y="813" on="1"/>
        <pt x="478" y="742" on="0"/>
        <pt x="506" y="694" on="1"/>
        <pt x="550" y="760" on="0"/>
        <pt x="587" y="811" on="1"/>
        <pt x="766" y="1062" on="1"/>
        <pt x="981" y="1062" on="1"/>
        <pt x="614" y="562" on="1"/>
        <pt x="1009" y="0" on="1"/>
        <pt x="788" y="0" on="1"/>
        <pt x="570" y="330" on="1"/>
        <pt x="512" y="419" on="1"/>
        <pt x="233" y="0" on="1"/>
      </contour>
    </TTGlyph>
    <TTGlyph name="y" xMin="33" yMin="-431" xMax="1006" yMax="1062">
      <contour>
        <pt x="127" y="-409" on="1"/>
        <pt x="107" y="-240" on="1"/>
        <pt x="166" y="-256" on="0"/>
        <pt x="210" y="-256" on="1"/>
        <pt x="270" y="-256" on="0"/>
        <pt x="342" y="-216" on="0"/>
        <pt x="365" y="-180" on="1"/>
        <pt x="382" y="-153" on="0"/>
        <pt x="420" y="-46" on="1"/>
        <pt x="425" y="-31" on="0"/>
        <pt x="436" y="-2" on="1"/>
        <pt x="33" y="1062" on="1"/>
        <pt x="227" y="1062" on="1"/>
        <pt x="448" y="447" on="1"/>
        <pt x="491" y="330" on="0"/>
        <pt x="525" y="201" on="1"/>
        <pt x="556" y="325" on="0"/>
        <pt x="599" y="443" on="1"/>
        <pt x="826" y="1062" on="1"/>
        <pt x="1006" y="1062" on="1"/>
        <pt x="602" y="-18" on="1"/>
        <pt x="537" y="-193" on="0"/>
        <pt x="501" y="-259" on="1"/>
        <pt x="453" y="-348" on="0"/>
        <pt x="329" y="-431" on="0"/>
        <pt x="243" y="-431" on="1"/>
        <pt x="191" y="-431" on="0"/>
      </contour>
    </TTGlyph>
    <TTGlyph name="z" xMin="40" yMin="0" xMax="980" yMax="1062">
      <contour>
        <pt x="40" y="0" on="1"/>
        <pt x="40" y="146" on="1"/>
        <pt x="716" y="922" on="1"/>
        <pt x="601" y="916" on="0"/>
        <pt x="513" y="916" on="1"/>
        <pt x="80" y="916" on="1"/>
        <pt x="80" y="1062" on="1"/>
        <pt x="948" y="1062" on="1"/>
        <pt x="948" y="943" on="1"/>
        <pt x="373" y="269" on="1"/>
        <pt x="262" y="146" on="1"/>
        <pt x="383" y="155" on="0"/>
        <pt x="489" y="155" on="1"/>
        <pt x="980" y="155" on="1"/>
        <pt x="980" y="0" on="1"/>
      </contour>
    </TTGlyph>
    <TTGlyph name="zero" xMin="85" yMin="-25" xMax="1041" yMax="1472">
      <contour>
        <pt x="85" y="723" on="1"/>
        <pt x="85" y="983" on="0"/>
        <pt x="192" y="1300" on="0"/>
        <pt x="403" y="1472" on="0"/>
        <pt x="563" y="1472" on="1"/>
        <pt x="681" y="1472" on="0"/>
        <pt x="859" y="1377" on="0"/>
        <pt x="975" y="1198" on="0"/>
        <pt x="1041" y="941" on="0"/>
        <pt x="1041" y="723" on="1"/>
        <pt x="1041" y="465" on="0"/>
        <pt x="935" y="148" on="0"/>
        <pt x="724" y="-25" on="0"/>
        <pt x="563" y="-25" on="1"/>
        <pt x="351" y="-25" on="0"/>
        <pt x="230" y="127" on="1"/>
        <pt x="85" y="310" on="0"/>
      </contour>
      <contour>
        <pt x="270" y="723" on="1"/>
        <pt x="270" y="362" on="0"/>
        <pt x="439" y="123" on="0"/>
        <pt x="563" y="123" on="1"/>
        <pt x="687" y="123" on="0"/>
        <pt x="856" y="363" on="0"/>
        <pt x="856" y="723" on="1"/>
        <pt x="856" y="1085" on="0"/>
        <pt x="687" y="1323" on="0"/>
        <pt x="561" y="1323" on="1"/>
        <pt x="437" y="1323" on="0"/>
        <pt x="363" y="1218" on="1"/>
        <pt x="270" y="1084" on="0"/>
      </contour>
    </TTGlyph>
</ttFont>
